<?xml version="1.0" encoding="utf8" standalone="no"?>
<svg viewBox="0 0 156.26665 196.77379" xmlns="http://www.w3.org/2000/svg" xmlns:xlink="http://www.w3.org/1999/xlink">
<defs>
<linearGradient id="linearGradient4469">
<stop offset="0" stop-color="#d40000"/>
<stop offset="1" stop-color="#970101"/>
</linearGradient>
<linearGradient gradientUnits="userSpaceOnUse" id="linearGradient4654" x1="81.81748" x2="78.55698" y1="441.2572" y2="464.86593">
<stop offset="0" stop-color="#816647"/>
<stop offset=".0984" stop-color="#506800"/>
<stop offset="1" stop-color="#fdca01"/>
</linearGradient>
<linearGradient gradientUnits="userSpaceOnUse" id="linearGradient4656" x1="75.54943" x2="19.15578" y1="396.37819" y2="446.79366">
<stop offset="0" stop-color="#015901"/>
<stop offset="1" stop-color="#ff0"/>
</linearGradient>
<linearGradient gradientUnits="userSpaceOnUse" id="linearGradient4658" x1="-13.94065" x2="207.83371">
<stop offset="0" stop-color="#d6152f"/>
<stop offset="1" stop-color="#eee"/>
</linearGradient>
<linearGradient gradientUnits="userSpaceOnUse" id="linearGradient4662" x1="68.8978" x2="53.66402" y1="475.20212" y2="505.65674">
<stop offset="0" stop-color="#eee"/>
<stop offset="1" stop-color="#eee" stop-opacity="0"/>
</linearGradient>
<linearGradient gradientUnits="userSpaceOnUse" id="linearGradient4652" x1="105.25191" x2="128.25398" xlink:href="#linearGradient4469" y1="534.46704" y2="433.24997"/>
<radialGradient cx="113.20023" cy="523.43817" gradientTransform="matrix(-5.1896262e-6,1.54137,-1.16242,0,703.88516,332.92829)" gradientUnits="userSpaceOnUse" id="radialGradient4650" r="78.13332" xlink:href="#linearGradient4469"/>
</defs>
<g transform="translate(-17.29445,-384.80922)">
<path d="m77.02209,437.23102c-31.97254,10.43093-70.74506,19.06166-56.80815,79.11318 10.78399,45.86197 41.15977,68.65511 81.5528,64.82402 51.40057-4.89315 66.92312-33.32324 71.79435-72.83989-1.86247-54.37816-28.32685-86.87312-96.539-71.09731z" fill="url(#radialGradient4650)"/>
<path d="m22.125,523.4375c12.1551,41.10065 41.40659,61.34655 79.65625,57.71875 25.21679-2.40055 41.79366-10.45847 52.71875-22.71875-35.63632,13.06435-75.05739,15.06647-132.375-35z" fill="#980101"/>
<path d="m108.59375,433.25c-9.34448-.006-19.83854,1.25728-31.5625,3.96875-31.66959,10.33209-70.00824,18.91547-57.1875,77.4375 71.7017,39.93215 105.91151,20.01585 152.5625-20.875-4.83308-36.83896-23.83004-60.50349-63.8125-60.53125z" fill="url(#linearGradient4652)"/>
<path d="m110.19093,451.27192c0,0-7.66736,6.74499-11.84955,7.09999-4.1822.35499-11.15252-1.065-16.03175,1.06499s-12.54659,4.26-15.33471,5.325c-2.78813,1.065-11.84955-6.38999-13.94065-6.74499-2.0911-.35501-9.06142-2.48499-7.66736-3.54999 1.39407-1.065 13.94065-3.905 15.33471-3.54999 1.39407.35499 12.19807,1.77499 12.19807,1.77499s5.22774-1.065 6.62181-3.55 4.53071-6.38999 5.92478-6.74498 4.1822,0 5.57626,1.41999 5.22774,4.61499 5.92478,2.84 4.53072-4.96999 6.62181-6.03499 10.10697-3.55 8.01588-2.485-5.92478,3.905-6.62181,5.67999-.69703,4.61499-.69703,4.61499l5.92477,2.84z" fill="url(#linearGradient4654)"/>
<path d="m86.43203,457.99763c0,0-5.57626-44.26157-5.92478-46.35266s-1.04555-11.50104-1.39407-14.28917 1.39407-8.01587 1.39407-8.01587l10.45549-4.53071 1.04555,3.13664 4.53071.69703-5.22774,2.43962c0,0-4.18219,3.48516-4.53071,6.62181s-.34852,10.45548-.34852,11.84955 .34852,19.16839.34852,19.16839l3.13665,18.47136 1.74258,11.84955-5.22774-1.04554z" fill="#816647"/>
<path d="m75.38478,397.14513c0,0-7.01778,8.95717-6.72219,11.14147s-3.67645,8.17135-4.81543,10.43858-9.93376,11.24244-9.93376,11.24244l-6.35097,7.30992c0,0-10.16448,8.71572-12.07123,9.4186s-16.33542.0975-16.33542.0975 11.64588-10.91806 12.24781-12.22288-1.87796-3.19353-3.02425-8.37673-1.56088-12.35608 1.89215-15.60374 3.62962-6.05194 8.27577-6.23582 5.28416,2.06529 10.06007,1.19656 6.66461-3.34863 8.34065-6.57825 1.59312-4.66419 4.46227-4.83004 5.20124.63073 7.59822,1.08486 6.71874,1.98237 6.37632,1.9175z" fill="url(#linearGradient4656)"/>
<path d="m36.81021,428.50081c.79656-2.3321 9.63817-13.42674 11.73955-15.15691s15.07013-10.2693 16.69933-11.37948 11.08004-6.05924 11.08004-6.05924l13.43018-3.48568-.50826-2.93402-16.55884,5.02121-8.97866,4.32907-10.63665,9.33569-12.60828,10.381-3.65841,9.94836z" fill="#015a01"/>
<path d="m33.80608,474.87077c0,0-18.12284,45.30711 32.76053,90.96274l-.69703-.34852c-22.65356-30.66943-32.06349-90.61422-32.06349-90.61422z" fill="url(#linearGradient4658)" opacity=".66527"/>
<path d="m134.17875,452.21721c0,0 51.23189,46.70118 5.92478,106.29746h.69703c24.74465-50.88337-6.62181-106.29746-6.62181-106.29746z" fill="url(#linearGradient4658)" opacity=".66527"/>
<path d="m81.81748,485.06146c0,6.80521-7.39239,12.32191-16.51136,12.32191s-16.51136-5.5167-16.51136-12.32191 7.39239-12.32191 16.51136-12.32191 16.51136,5.51671 16.51136,12.32191z" fill="url(#linearGradient4662)" opacity=".66527" transform="matrix(.87054,-.4921,.4921,.87054,-233.69374,93.9477)"/>
<path d="m81.81748,485.06146c0,6.80521-7.39239,12.32191-16.51136,12.32191s-16.51136-5.5167-16.51136-12.32191 7.39239-12.32191 16.51136-12.32191 16.51136,5.51671 16.51136,12.32191z" fill="url(#linearGradient4662)" opacity=".66527" transform="matrix(.63682,-.35693,.35998,.63141,-153.60589,197.41426)"/>
</g>
</svg>
