<?xml version="1.0" encoding="utf8" standalone="no"?>
<svg viewBox="0 0 563.67871 366.11691" xmlns="http://www.w3.org/2000/svg">
<defs>
<filter id="filter6065-2">
<feGaussianBlur stdDeviation="2.68625"/>
</filter>
<linearGradient gradientUnits="userSpaceOnUse" id="linearGradient7017" x1="297.99698" x2="327.57678" y1="220.54188" y2="365.75174">
<stop offset="0" stop-color="#808080"/>
<stop offset="1" stop-color="#808080" stop-opacity="0"/>
</linearGradient>
</defs>
<g transform="matrix(1.63395,0,0,1.63395,-237.07876,-337.51908)">
<path d="m344.55923,425.01067c-2.11287-4.43214-4.51847-10.59913-7.20216-15.01626-3.01546-6.27562-7.38495-12.9852-12.00359-17.83432-6.24531-7.89331-15.28232-13.78229-24.71199-17.06954-8.55955-1.29268-15.3163,5.15791-20.75162,10.72769-.44875-7.47645 1.63189-16.51693-3.34386-23.07499-.80914-4.09659-6.00792-5.60723-8.39716-7.73337-5.5684-2.47218-11.77335-3.27757-17.81783-1.4766-5.46757,1.46318-10.54228,3.25099-15.45463,6.45699-4.30588,2.4018-7.47441,5.43178-11.55346,8.55927-5.25783,1.87321 2.84454-16.08-2.56438-20.57228-1.92076-5.39375-8.52523-6.51237-13.02706-8.92367-9.01872-1.78211-17.92324.0989-26.42116,2.46668-4.7017,1.01032-8.89554,4.48589-12.90386,6.87406-3.81337,2.63536-7.03199,4.39495-10.6251,6.79074-.83213-8.1817 2.51797-15.82309 3.83246-23.83771 1.27269-5.68908 3.62691-11.21538 4.78902-16.97561 2.36531-4.65989 3.89839-9.67801 5.90479-14.29635 3.04209-6.09383 5.99425-12.01561 9.00269-18.01951 2.40183-3.61735 5.47444-8.30701 8.10243-12.16317 2.78737-3.27767 5.15356-6.79609 8.40251-9.91073 3.91673-3.92752 7.60762-7.92061 12.15364-10.81171 4.16997-2.95397-.99373,10.20159-.34296,13.56469 1.13565,5.77181 1.43802,12.31055 4.69426,17.3688 2.44753,3.55627 4.61564,6.75619 7.6523,9.91073 6.49947,7.368 14.42943,13.16527 23.25696,17.59289 4.90751,2.56496 10.08938,4.2741 15.30458,5.98264 8.22227,1.8466 16.56056,4.15995 25.35759,4.35471 7.64659,2.15299 15.32302,1.46288 10.74596-8.20092-3.11078-9.8105-3.69307-18.76386 3.8084-9.06777 3.99664,5.94678 18.07399,3.22126 18.80813-4.75631 .9079-6.29417.29446-18.60193 7.67578,3.39494-.10628,4.05219 2.78673,8.34087 10.87942,5.49877 4.87945-2.03047 6.94522-2.31045 11.55131-5.18854 3.56617-2.68472 7.1204-5.77551 10.19897-8.41321 5.65855-5.65789 11.60305-12.21239 16.20894-19.21671 3.64831-6.88838 8.06009-14.398 8.81203-22.63641 2.4141-8.58009.037-17.95638-3.1981-25.75922-6.77531-9.80439 7.59067-3.54543 12.54151-3.56062 6.79493,1.21478 13.37473,2.70699 19.65588,5.58241 5.04355,1.61248 10.22787,3.8628 14.85445,6.43059 5.36636,2.13778 10.68452,6.08879 15.90476,9.00976 3.60319,2.43374 7.16426,5.13781 10.95328,7.95862 4.49587,3.37568 8.70639,6.74861 12.52875,10.84925 3.49793,1.75697 5.97315,5.45771 8.90382,8.2214 3.47743,4.1349 6.92688,8.02659 10.19882,12.013-3.44417.86172-12.77967-4.04016-18.33425-5.02275-8.70427-.63787-17.69955-1.74888-25.55626,2.81419-6.62731,1.90136-12.36675,8.09952-13.05769,15.12255-2.75852,8.3239 1.45061,16.08158 3.50659,23.68666 2.70115,4.23065 4.67837,9.02601 6.80573,13.25333-2.83378.2249-8.64328-4.53148-12.97889-5.10143-6.50327-2.7673-14.26531-4.91551-21.83154-3.49282-5.4912.99712-9.97567,4.00989-13.50404,8.59425-3.29705,6.0182-6.23175,14.35628-3.69167,21.45957 2.52872,8.22375 1.45312,9.42283-3.81055,3.01693-3.83424-4.07208-8.77395-6.02196-14.10422-6.90747-5.24776-.83887-11.54571,1.46988-15.00449,6.0065-7.88338,6.68494-10.41975,17.19301-12.41034,26.57878-3.1636,14.9-.43343,30.28459 2.20728,44.89861l-.30008,1.05114zm-31.85618-101.55183c-1.04959-7.60552-11.76493.11232-2.06452,1.39338 1.02294.43302 1.78332-.97615 2.06452-1.39338zm7.5489-.86848c5.37024-6.92639-1.17105-5.41576-3.75112-1.49222-1.55602,3.01575 2.53385,1.95095 3.75112,1.49222z" fill="#4d4d4d" filter="url(#filter6065-2)"/>
<path d="m343.66287,425.01067c-2.11287-4.43214-4.51847-10.59913-7.20216-15.01626-3.01546-6.27562-7.38495-12.9852-12.00359-17.83432-6.24531-7.89331-15.28232-13.78229-24.71199-17.06954-8.55955-1.29268-15.3163,5.15791-20.75162,10.72769-.44875-7.47645 1.63189-16.51693-3.34386-23.07499-.80914-4.09659-6.00792-5.60723-8.39716-7.73337-5.5684-2.47218-11.77335-3.27757-17.81783-1.4766-5.46757,1.46318-10.54228,3.25099-15.45463,6.45699-4.30588,2.4018-7.47441,5.43178-11.55346,8.55927-5.25783,1.87321 2.84454-16.08-2.56438-20.57228-1.92076-5.39375-8.52523-6.51237-13.02706-8.92367-9.01872-1.78211-17.92324.0989-26.42116,2.46668-4.7017,1.01032-8.89554,4.48589-12.90386,6.87406-3.81337,2.63536-7.03199,4.39495-10.6251,6.79074-.83213-8.1817 2.51797-15.82309 3.83246-23.83771 1.27269-5.68908 3.62691-11.21538 4.78902-16.97561 2.36531-4.65989 3.89839-9.67801 5.90479-14.29635 3.04209-6.09383 5.99425-12.01561 9.00269-18.01951 2.40183-3.61735 5.47444-8.30701 8.10243-12.16317 2.78737-3.27767 5.15356-6.79609 8.40251-9.91073 3.91673-3.92752 7.60762-7.92061 12.15364-10.81171 4.16997-2.95397-.99373,10.20159-.34296,13.56469 1.13565,5.77181 1.43802,12.31055 4.69426,17.3688 2.44753,3.55627 4.61564,6.75619 7.6523,9.91073 6.49947,7.368 14.42943,13.16527 23.25696,17.59289 4.90751,2.56496 10.08938,4.2741 15.30458,5.98264 8.22227,1.8466 16.56056,4.15995 25.35759,4.35471 7.64659,2.15299 15.32302,1.46288 10.74596-8.20092-3.11078-9.8105-3.69307-18.76386 3.8084-9.06777 3.99664,5.94678 18.07399,3.22126 18.80813-4.75631 .9079-6.29417.29446-18.60193 7.67578,3.39494-.10628,4.05219 2.78673,8.34087 10.87942,5.49877 4.87945-2.03047 6.94522-2.31045 11.55131-5.18854 3.56617-2.68472 7.1204-5.77551 10.19897-8.41321 5.65855-5.65789 11.60305-12.21239 16.20894-19.21671 3.64831-6.88838 8.06009-14.398 8.81203-22.63641 2.4141-8.58009.037-17.95638-3.1981-25.75922-6.77531-9.80439 7.59067-3.54543 12.54151-3.56062 6.79493,1.21478 13.37473,2.70699 19.65588,5.58241 5.04355,1.61248 10.22787,3.8628 14.85445,6.43059 5.36636,2.13778 10.68452,6.08879 15.90476,9.00976 3.60319,2.43374 7.16426,5.13781 10.95328,7.95862 4.49587,3.37568 8.70639,6.74861 12.52875,10.84925 3.49793,1.75697 5.97315,5.45771 8.90382,8.2214 3.47743,4.1349 6.92688,8.02659 10.19882,12.013-3.44417.86172-12.77967-4.04016-18.33425-5.02275-8.70427-.63787-17.69955-1.74888-25.55626,2.81419-6.62731,1.90136-12.36675,8.09952-13.05769,15.12255-2.75852,8.3239 1.45061,16.08158 3.50659,23.68666 2.70115,4.23065 4.67837,9.02601 6.80573,13.25333-2.83378.2249-8.64328-4.53148-12.97889-5.10143-6.50327-2.7673-14.26531-4.91551-21.83154-3.49282-5.4912.99712-9.97567,4.00989-13.50404,8.59425-3.29705,6.0182-6.23175,14.35628-3.69167,21.45957 2.52872,8.22375 1.45312,9.42283-3.81055,3.01693-3.83424-4.07208-8.77395-6.02196-14.10422-6.90747-5.24776-.83887-11.54571,1.46988-15.00449,6.0065-7.88338,6.68494-10.41975,17.19301-12.41034,26.57878-3.1636,14.9-.43343,30.28459 2.20728,44.89861l-.30008,1.05114zm-31.85618-101.55183c-1.04959-7.60552-11.76493.11232-2.06452,1.39338 1.02294.43302 1.78332-.97615 2.06452-1.39338zm7.5489-.86848c5.37024-6.92639-1.17105-5.41576-3.75112-1.49222-1.55602,3.01575 2.53385,1.95095 3.75112,1.49222z"/>
<path d="m385.32239,220.67761c8.71444,20.06151.77059,43.60428-12.90625,59.375-10.28486,12.95777-24.01068,25.71893-41.1875,27.5-4.87875-.47998-8.73334-4.66259-9.9375-9.21875-4.24606,6.92823-14.21359,9.46069-21.40625,5.625 2.41481,5.44639 2.47526,14.41196-4.65625,16.09375-8.91054,1.90652-17.75545-1.80982-26.5977-2.36329-25.79961-5.00552-51.95684-19.93787-62.12105-45.23046-1.68927-5.27054-2.28312-10.87795-1.9375-16.40625-23.84382,23.04852-36.27835,55.46115-42.40625,87.65625 15.34804-11.40715 37.61714-17.44814 55.1875-7.625 6.99455,4.19774 10.39269,13.46097 8.78125,21.03125 12.55309-9.66269 30.9729-16.10468 45.71875-7.46875 7.86891,4.62671 11.63826,14.08042 11.90625,22.9375 8.28331-6.61393 20.67109-5.77493 28.73737.71117 9.92457,5.74722 17.89605,15.44863 23.82513,24.35133-.97485-19.37871 3.20012-41.66513 19.25-53.9375 7.88364-5.16737 19.182-4.09863 26.375.8125-1.67942-16.76519 13.52612-33.69186 30.86159-30.63939 5.91767.55726 11.54173,2.5187 17.07591,4.60814-6.23828-12.44819-9.90737-29.79583.59375-40.875 10.63237-11.1842 28.55016-12.07175 42.375-8.5625-23.11221-24.56485-53.75611-43.91763-87.53125-48.375zm-65.03125,89.90625c6.20816.11886 6.79215,8.8771 2.65625,12.125-2.25822,2.48881-6.01633,2.87159-8.875,2.03125-4.81247,6.26508-16.51462-2.31791-11.625-8.71875 2.3726-3.62017 7.78107-3.56481 10.96875-2.03125 1.8486-1.81631 4.21538-3.19978 6.875-3.40625z" fill="url(#linearGradient7017)"/>
</g>
</svg>
