<?xml version="1.0" encoding="utf8" standalone="no"?>
<svg viewBox="0 0 293.33234 393.30801" xmlns="http://www.w3.org/2000/svg">
<g transform="translate(-179.07881,-298.51419)">
<path d="m322.07643,376.01682c1.5-30.5 39-75 45.5-75.5s-14,70.5-19.5,75.5-25.5,1.5-26,0z" fill="#784421" fill-rule="evenodd" stroke="#000" stroke-linejoin="round" stroke-width="4"/>
<path d="m188.5,2c-.51578.03968-1.25231.37271-2.125.9375-.95373,13.1701-22.90707,66.26521-28.15625,70.125-2.9616,2.17771-9.24829,1.94088-14.875.9375-.15403,1.18037-.28749,2.35596-.34375,3.5 .5,1.5 20.5,5 26,0s26-76 19.5-75.5z" fill-opacity=".31373" fill-rule="evenodd" transform="translate(179.07881,298.51419)"/>
<path d="m403.52333,522.30505a67.98833,67.98833 0 1,1 -135.97665,0 67.98833,67.98833 0 1,1 135.97665,0z" fill="#a05a2c" stroke="#000" stroke-linecap="round" stroke-linejoin="round" stroke-width="2.20408" transform="matrix(1.81481,0,0,1.81481,-283.47124,-459.57607)"/>
<path d="m403.52333,522.30505a67.98833,67.98833 0 1,1 -135.97665,0 67.98833,67.98833 0 1,1 135.97665,0z" fill-opacity=".31373" transform="matrix(1.40298,0,0,1.40298,-140.28605,-263.97236)"/>
<path d="m434.03125,429.6875c3.20192,10.97469 4.90625,22.58942 4.90625,34.59375 1e-005,68.10918-55.26581,123.375-123.375,123.375-46.82508,0-87.59785-26.13219-108.5-64.59375 15.02313,51.20031 62.36706,88.62501 118.40625,88.625 68.10919,0 123.375-55.26582 123.375-123.375 0-21.20992-5.37317-41.18573-14.8125-58.625z" fill-opacity=".31373"/>
<path d="m409.50378,608.23916c0,21.54474-17.48559,20.77422-39.03034,20.77422s-39.03033.77052-39.03033-20.77422 17.48559-39.03034 39.03033-39.03034 39.03034,17.48559 39.03034,39.03034z" fill="#a05a2c" stroke="#000" stroke-linecap="round" stroke-linejoin="round" stroke-width="4"/>
<path d="m319.4822,608.23915c0,21.54475-17.48559,20.77422-39.03034,20.77422-11.9799,0-22.70476.23824-29.86625-3.25428-5.71779-2.78845-9.16409-7.95509-9.16409-17.51994 0-21.54474 17.48559-39.03033 39.03034-39.03033s39.03034,17.48559 39.03034,39.03033z" fill="#a05a2c" stroke="#000" stroke-linecap="round" stroke-linejoin="round" stroke-width="4"/>
<g transform="matrix(-1,0,0,1,652.15145,-2.82843)">
<path d="m357.34172,628.69417c-3.5026-11.33139.50038-24.55134.50038-24.55134" fill="none" stroke="#000" stroke-linecap="round" stroke-width="4"/>
<path d="m375.36715,631.21226c4.29303-18.25613-.61329-32.73512-.61329-32.73512" fill="none" stroke="#000" stroke-linecap="round" stroke-width="4"/>
<path d="m393.62142,629.3237c8.81331-13.84948 1.25905-25.18087 1.25905-25.18087" fill="none" stroke="#000" stroke-linecap="round" stroke-width="4"/>
</g>
<path d="m403.52333,522.30505a67.98833,67.98833 0 1,1 -135.97665,0 67.98833,67.98833 0 1,1 135.97665,0z" fill="#a05a2c" stroke="#000" stroke-linecap="round" stroke-linejoin="round" stroke-width="2.85108" transform="matrix(1.40298,0,0,1.40298,-145.28605,-277.47236)"/>
<path d="m233.4375,117.75c1.52567,6.7692 2.34375,13.80329 2.34375,21.03125 0,52.6532-42.75306,95.40625-95.40625,95.40625-38.77621,0-72.15261-23.19069-87.0625-56.4375 9.55506,42.58704 47.60536,74.4375 93.0625,74.4375 52.65319,0 95.40625-42.75305 95.40625-95.40625 0-13.91184-2.98257-27.10971-8.34375-39.03125z" fill-opacity=".31373" transform="translate(179.07881,298.51419)"/>
<path d="m403.52333,522.30505a67.98833,67.98833 0 1,1 -135.97665,0 67.98833,67.98833 0 1,1 135.97665,0z" fill="#fff" stroke="#000" stroke-linecap="round" stroke-linejoin="round" stroke-width="9.93104" transform="matrix(.40278,0,0,.40278,158.80808,226.92723)"/>
<path d="m403.52333,522.30505a67.98833,67.98833 0 1,1 -135.97665,0 67.98833,67.98833 0 1,1 135.97665,0z" fill="#fff" stroke="#000" stroke-linecap="round" stroke-linejoin="round" stroke-width="9.93104" transform="matrix(.40278,0,0,.40278,222.38976,226.92723)"/>
<path d="m403.52333,522.30505a67.98833,67.98833 0 1,1 -135.97665,0 67.98833,67.98833 0 1,1 135.97665,0z" transform="matrix(.125,0,0,.125,260.19603,375.15958)"/>
<path d="m403.52333,522.30505a67.98833,67.98833 0 1,1 -135.97665,0 67.98833,67.98833 0 1,1 135.97665,0z" transform="matrix(.125,0,0,.125,306.78063,375.15958)"/>
<path d="m350.81167,501.74715c0,13.77556-15.0863,24.95573-25.06669,24.95573-10.75169,0-25.06669-11.18017-25.06669-24.95573s11.22987-17.27703 25.06669-17.27703 25.06669,3.50148 25.06669,17.27703z"/>
<path d="m390.96875,575.03125c4.72285,6.47998 7.53125,14.46734 7.53125,23.09375 1e-005,12.4664-5.83515,23.55857-14.90625,30.75 15.08125-.57257 25.90625-3.69375 25.90625-20.625 0-14.03175-7.40662-26.33968-18.53125-33.21875z" fill-opacity=".31373"/>
<g transform="translate(-.14728,-2.82843)">
<path d="m357.34172,628.69417c-3.5026-11.33139.50038-24.55134.50038-24.55134" fill="none" stroke="#000" stroke-linecap="round" stroke-width="4"/>
<path d="m375.36715,631.21226c4.29303-18.25613-.61329-32.73512-.61329-32.73512" fill="none" stroke="#000" stroke-linecap="round" stroke-width="4"/>
<path d="m393.62142,629.3237c8.81331-13.84948 1.25905-25.18087 1.25905-25.18087" fill="none" stroke="#000" stroke-linecap="round" stroke-width="4"/>
</g>
<path d="m300.46875,575.03125c4.72285,6.47998 7.53125,14.46734 7.53125,23.09375 1e-005,12.4664-5.83515,23.55857-14.90625,30.75 15.08125-.57257 25.90625-3.69375 25.90625-20.625 0-14.03175-7.40662-26.33968-18.53125-33.21875z" fill-opacity=".31373"/>
<path d="m336.65625,588.75c-3.31254,5.73475-5.21875,12.4056-5.21875,19.5 0,17.5051 11.55269,20.26284 27.4375,20.6875-15.77979-6.57803-23.80465-22.20756-22.21875-40.1875z" fill-opacity=".31373"/>
<path d="m258.28779,386.51682c-54.92008-3.87409-83.52944,62.30152-76.02944,81.80152 6.09736,15.85314 39.78785,31.84301 38.42893,17.3033-4.4099-47.18377 54.73362-97.89624 37.60051-99.10482z" fill="#784421" fill-rule="evenodd" stroke="#000" stroke-linejoin="round" stroke-width="4"/>
<path d="m393.20216,386.51682c54.92008-3.87409 83.52944,62.30152 76.02944,81.80152-6.09736,15.85314-39.78785,31.84301-38.42893,17.3033 4.4099-47.18377-54.73362-97.89624-37.60051-99.10482z" fill="#784421" fill-rule="evenodd" stroke="#000" stroke-linejoin="round" stroke-width="4"/>
<path d="m219.1875,87.84375c50.89889,10.29484 64.65984,77.40619 53.75,94.53125-2.41806,3.79561-6.75522,7.18923-11.71875,9.90625 10.08469-2.33116 25.06748-12.40671 28.9375-22.46875 7.26563-18.89062-19.36723-81.59091-70.96875-81.96875z" fill-opacity=".31373" fill-rule="evenodd" transform="translate(179.07881,298.51419)"/>
<path d="m290.78966,670.82853 72.76745-15.76016c0,0 12.42409,19.9535 26.81996,8.58429s-5.74077-22.66151-5.74077-22.66151 20.21722-11.03467.3443-20.93755-26.50496,15.82679-26.50496,15.82679l-70.51608,12.45391c0,0-18.34189-24.58811-31.81474-8.35597s5.01067,26.39874 5.01067,26.39874-14.82685,12.89047 4.08764,21.53581 24.55271-14.73652 25.54653-17.08435z" fill="#e3dbdb" fill-rule="evenodd" stroke="#000" stroke-linejoin="round" stroke-width="4"/>
<path d="m277.35528,638.23068c1.97764,1.88541 3.83654,3.81669 5.64639,5.4489l.70614-.13403c-1.73997-1.74011-3.89851-3.66966-6.35253-5.31487zm108.92957-17.4948c.33338.46089.63558.95669.91124,1.44925 2.0148,6.02016-6.39445,10.95384-9.5075,14.30323 1.12726,2.20978 3.89323,3.67535 6.11701,5.58224 1.91416-1.10496 19.0699-12.1773 2.47925-21.33472zm-134.02474,35.93545c.90937,2.22922 2.30674,4.12397 3.73861,5.62016 1.90089-2.2584-1.57236-3.80273-3.73861-5.62016zm134.13957-14.5505c.44157.51308.82089,1.0873 1.11719,1.69642 6.03441,7.7081-3.97619,17.17872-11.87633,16.69502-7.7556-.16903-10.84066-7.66412-15.72266-12.37897-24.25878,5.25125-50.25432,10.83214-74.5131,16.08339-2.47688,4.05128-3.34406,9.33051-6.64946,13.06286-4.95021,7.83896-15.93048,7.02915-22.55248,1.67236-.13169-.07083-.2395-.17308-.36529-.24874 .67663,3.12738 3.24852,6.39969 9.41544,9.21843 18.91449,8.64532 24.54779-14.7462 25.54161-17.09403l74.5131-16.08339c-1e-005,1e-005 10.68902,20.28534 25.0849,8.91613 11.69664-9.2375.58086-18.41923-3.99292-21.53948z" fill-opacity=".31373" fill-rule="evenodd"/>
</g>
</svg>
