<svg xmlns="http://www.w3.org/2000/svg" width="270" height="110"><path d="M32,-27L58,-28L88,-30Z" fill="#d9f0c1" stroke="#d9f0c1" stroke-width="1.51"/><path d="M-22,-26L32,-27L88,-30Z" fill="#e8f6bf" stroke="#e8f6bf" stroke-width="1.51"/><path d="M95,135L15,137L138,137Z" fill="#5c7795" stroke="#5c7795" stroke-width="1.51"/><path d="M88,-30L151,-27L189,-30Z" fill="#a9d5c9" stroke="#a9d5c9" stroke-width="1.51"/><path d="M160,137L138,137L208,139Z" fill="#255c95" stroke="#255c95" stroke-width="1.51"/><path d="M189,-30L219,-28L250,-27Z" fill="#9daabc" stroke="#9daabc" stroke-width="1.51"/><path d="M189,-30L250,-27L279,-26Z" fill="#9c9fb8" stroke="#9c9fb8" stroke-width="1.51"/><path d="M294,28L278,38L298,54Z" fill="#497196" stroke="#497196" stroke-width="1.51"/><path d="M298,54L273,54L298,79Z" fill="#2f6597" stroke="#2f6597" stroke-width="1.51"/><path d="M273,54L274,81L298,79Z" fill="#2a609c" stroke="#2a609c" stroke-width="1.51"/><path d="M273,119L276,131L299,111Z" fill="#1e3086" stroke="#1e3086" stroke-width="1.51"/><path d="M299,-7L271,10L300,12Z" fill="#7b8192" stroke="#7b8192" stroke-width="1.51"/><path d="M271,10L294,28L300,12Z" fill="#6e7d94" stroke="#6e7d94" stroke-width="1.51"/><path d="M294,28L298,54L300,12Z" fill="#51728f" stroke="#51728f" stroke-width="1.51"/><path d="M279,-26L299,-7L300,-20Z" fill="#8a8693" stroke="#8a8693" stroke-width="1.51"/><path d="M299,-7L300,12L300,-20Z" fill="#7f818a" stroke="#7f818a" stroke-width="1.51"/><path d="M279,96L299,111L300,95Z" fill="#1b3f87" stroke="#1b3f87" stroke-width="1.51"/><path d="M298,79L279,96L300,95Z" fill="#1e4b8d" stroke="#1e4b8d" stroke-width="1.51"/><path d="M300,12L298,54L300,95Z" fill="#326891" stroke="#326891" stroke-width="1.51"/><path d="M298,54L298,79L300,95Z" fill="#1f578f" stroke="#1f578f" stroke-width="1.51"/><path d="M276,131L248,134L300,141Z" fill="#192a79" stroke="#192a79" stroke-width="1.51"/><path d="M248,134L208,139L300,141Z" fill="#1c3181" stroke="#1c3181" stroke-width="1.51"/><path d="M299,111L276,131L300,141Z" fill="#182978" stroke="#182978" stroke-width="1.51"/><path d="M300,95L299,111L300,141Z" fill="#19307c" stroke="#19307c" stroke-width="1.51"/><path d="M274,81L279,96L298,79Z" fill="#225396" stroke="#225396" stroke-width="1.51"/><path d="M279,96L273,119L299,111Z" fill="#1f3b8a" stroke="#1f3b8a" stroke-width="1.51"/><path d="M279,-26L269,-10L299,-7Z" fill="#8e8998" stroke="#8e8998" stroke-width="1.51"/><path d="M269,-10L271,10L299,-7Z" fill="#868799" stroke="#868799" stroke-width="1.51"/><path d="M278,38L273,54L298,54Z" fill="#406f9c" stroke="#406f9c" stroke-width="1.51"/><path d="M271,10L278,38L294,28Z" fill="#637b9a" stroke="#637b9a" stroke-width="1.51"/><path d="M273,54L254,80L274,81Z" fill="#3065a7" stroke="#3065a7" stroke-width="1.51"/><path d="M271,10L254,29L278,38Z" fill="#687fa4" stroke="#687fa4" stroke-width="1.51"/><path d="M250,-27L269,-10L279,-26Z" fill="#9890aa" stroke="#9890aa" stroke-width="1.51"/><path d="M255,114L273,119L279,96Z" fill="#243e94" stroke="#243e94" stroke-width="1.51"/><path d="M259,91L255,114L279,96Z" fill="#25489c" stroke="#25489c" stroke-width="1.51"/><path d="M274,81L259,91L279,96Z" fill="#26529d" stroke="#26529d" stroke-width="1.51"/><path d="M252,52L273,54L278,38Z" fill="#4875a7" stroke="#4875a7" stroke-width="1.51"/><path d="M254,29L252,52L278,38Z" fill="#557bab" stroke="#557bab" stroke-width="1.51"/><path d="M252,52L254,80L273,54Z" fill="#396fac" stroke="#396fac" stroke-width="1.51"/><path d="M273,119L248,134L276,131Z" fill="#21308a" stroke="#21308a" stroke-width="1.51"/><path d="M250,-27L255,-10L269,-10Z" fill="#9893aa" stroke="#9893aa" stroke-width="1.51"/><path d="M269,-10L255,-10L271,10Z" fill="#8e8da4" stroke="#8e8da4" stroke-width="1.51"/><path d="M250,19L254,29L271,10Z" fill="#7487a9" stroke="#7487a9" stroke-width="1.51"/><path d="M255,114L248,134L273,119Z" fill="#253695" stroke="#253695" stroke-width="1.51"/><path d="M254,80L259,91L274,81Z" fill="#2b5ba7" stroke="#2b5ba7" stroke-width="1.51"/><path d="M255,-10L250,19L271,10Z" fill="#868da8" stroke="#868da8" stroke-width="1.51"/><path d="M238,131L208,139L248,134Z" fill="#1e3d8b" stroke="#1e3d8b" stroke-width="1.51"/><path d="M191,135L160,137L208,139Z" fill="#215493" stroke="#215493" stroke-width="1.51"/><path d="M219,-28L228,-23L250,-27Z" fill="#9ca2b8" stroke="#9ca2b8" stroke-width="1.51"/><path d="M231,-5L230,13L250,19Z" fill="#8597ac" stroke="#8597ac" stroke-width="1.51"/><path d="M233,58L235,77L252,52Z" fill="#3679b1" stroke="#3679b1" stroke-width="1.51"/><path d="M252,52L235,77L254,80Z" fill="#3170ae" stroke="#3170ae" stroke-width="1.51"/><path d="M231,-5L250,19L255,-10Z" fill="#8c95aa" stroke="#8c95aa" stroke-width="1.51"/><path d="M241,119L248,134L255,114Z" fill="#263c98" stroke="#263c98" stroke-width="1.51"/><path d="M237,96L255,114L259,91Z" fill="#254fa1" stroke="#254fa1" stroke-width="1.51"/><path d="M254,80L237,96L259,91Z" fill="#285ca7" stroke="#285ca7" stroke-width="1.51"/><path d="M228,-23L231,-5L250,-27Z" fill="#9a9fb0" stroke="#9a9fb0" stroke-width="1.51"/><path d="M230,39L252,52L254,29Z" fill="#5383ae" stroke="#5383ae" stroke-width="1.51"/><path d="M235,77L237,96L254,80Z" fill="#2864ac" stroke="#2864ac" stroke-width="1.51"/><path d="M250,-27L231,-5L255,-10Z" fill="#9899ab" stroke="#9899ab" stroke-width="1.51"/><path d="M237,96L241,119L255,114Z" fill="#26499e" stroke="#26499e" stroke-width="1.51"/><path d="M250,19L230,39L254,29Z" fill="#6489ac" stroke="#6489ac" stroke-width="1.51"/><path d="M241,119L238,131L248,134Z" fill="#223b91" stroke="#223b91" stroke-width="1.51"/><path d="M230,39L233,58L252,52Z" fill="#4582b1" stroke="#4582b1" stroke-width="1.51"/><path d="M230,13L230,39L250,19Z" fill="#6d90ae" stroke="#6d90ae" stroke-width="1.51"/><path d="M-22,-26L-2,-25L32,-27Z" fill="#f4fbc0" stroke="#f4fbc0" stroke-width="1.51"/><path d="M217,110L238,131L241,119Z" fill="#26469c" stroke="#26469c" stroke-width="1.51"/><path d="M237,96L217,110L241,119Z" fill="#2551a2" stroke="#2551a2" stroke-width="1.51"/><path d="M230,13L217,37L230,39Z" fill="#6192b1" stroke="#6192b1" stroke-width="1.51"/><path d="M235,77L213,91L237,96Z" fill="#2567ad" stroke="#2567ad" stroke-width="1.51"/><path d="M217,110L208,139L238,131Z" fill="#234698" stroke="#234698" stroke-width="1.51"/><path d="M230,39L217,50L233,58Z" fill="#4488b4" stroke="#4488b4" stroke-width="1.51"/><path d="M233,58L209,79L235,77Z" fill="#2b79b3" stroke="#2b79b3" stroke-width="1.51"/><path d="M213,91L217,110L237,96Z" fill="#235ea8" stroke="#235ea8" stroke-width="1.51"/><path d="M151,-27L171,-26L189,-30Z" fill="#a3c9c8" stroke="#a3c9c8" stroke-width="1.51"/><path d="M228,-23L218,-9L231,-5Z" fill="#98a4ae" stroke="#98a4ae" stroke-width="1.51"/><path d="M217,50L209,79L233,58Z" fill="#3283b6" stroke="#3283b6" stroke-width="1.51"/><path d="M209,79L213,91L235,77Z" fill="#2372b2" stroke="#2372b2" stroke-width="1.51"/><path d="M213,10L217,37L230,13Z" fill="#739bb1" stroke="#739bb1" stroke-width="1.51"/><path d="M213,10L230,13L231,-5Z" fill="#879faf" stroke="#879faf" stroke-width="1.51"/><path d="M218,-9L213,10L231,-5Z" fill="#8ea3b0" stroke="#8ea3b0" stroke-width="1.51"/><path d="M217,37L217,50L230,39Z" fill="#4e8eb4" stroke="#4e8eb4" stroke-width="1.51"/><path d="M219,-28L218,-9L228,-23Z" fill="#9aa7b5" stroke="#9aa7b5" stroke-width="1.51"/><path d="M53,131L15,137L95,135Z" fill="#768196" stroke="#768196" stroke-width="1.51"/><path d="M191,115L208,139L217,110Z" fill="#2853a3" stroke="#2853a3" stroke-width="1.51"/><path d="M213,91L191,100L217,110Z" fill="#2365ac" stroke="#2365ac" stroke-width="1.51"/><path d="M213,10L201,17L217,37Z" fill="#71a0b4" stroke="#71a0b4" stroke-width="1.51"/><path d="M201,17L194,32L217,37Z" fill="#63a0b6" stroke="#63a0b6" stroke-width="1.51"/><path d="M190,59L209,79L217,50Z" fill="#308cba" stroke="#308cba" stroke-width="1.51"/><path d="M199,0L213,10L218,-9Z" fill="#8ea9b3" stroke="#8ea9b3" stroke-width="1.51"/><path d="M189,-30L199,0L218,-9Z" fill="#9ab2b4" stroke="#9ab2b4" stroke-width="1.51"/><path d="M189,-30L218,-9L219,-28Z" fill="#9cb0ba" stroke="#9cb0ba" stroke-width="1.51"/><path d="M217,37L194,32L217,50Z" fill="#5197b7" stroke="#5197b7" stroke-width="1.51"/><path d="M191,115L191,135L208,139Z" fill="#25529a" stroke="#25529a" stroke-width="1.51"/><path d="M191,100L191,115L217,110Z" fill="#2662ab" stroke="#2662ab" stroke-width="1.51"/><path d="M194,32L190,59L217,50Z" fill="#4699ba" stroke="#4699ba" stroke-width="1.51"/><path d="M190,59L192,76L209,79Z" fill="#288abb" stroke="#288abb" stroke-width="1.51"/><path d="M209,79L191,100L213,91Z" fill="#2372b2" stroke="#2372b2" stroke-width="1.51"/><path d="M199,0L201,17L213,10Z" fill="#86abb4" stroke="#86abb4" stroke-width="1.51"/><path d="M192,76L191,100L209,79Z" fill="#237cb7" stroke="#237cb7" stroke-width="1.51"/><path d="M88,-30L110,-23L151,-27Z" fill="#b3dec5" stroke="#b3dec5" stroke-width="1.51"/><path d="M176,131L160,137L191,135Z" fill="#245c99" stroke="#245c99" stroke-width="1.51"/><path d="M181,55L190,59L194,32Z" fill="#42a0be" stroke="#42a0be" stroke-width="1.51"/><path d="M189,-30L172,-5L199,0Z" fill="#9bbcb8" stroke="#9bbcb8" stroke-width="1.51"/><path d="M199,0L178,13L201,17Z" fill="#86b2b7" stroke="#86b2b7" stroke-width="1.51"/><path d="M178,13L194,32L201,17Z" fill="#73adb9" stroke="#73adb9" stroke-width="1.51"/><path d="M172,-5L178,13L199,0Z" fill="#8ebaba" stroke="#8ebaba" stroke-width="1.51"/><path d="M171,-26L172,-5L189,-30Z" fill="#9fc4c1" stroke="#9fc4c1" stroke-width="1.51"/><path d="M176,76L171,96L191,100Z" fill="#2281b9" stroke="#2281b9" stroke-width="1.51"/><path d="M176,131L191,135L191,115Z" fill="#285aa1" stroke="#285aa1" stroke-width="1.51"/><path d="M176,76L191,100L192,76Z" fill="#2284ba" stroke="#2284ba" stroke-width="1.51"/><path d="M190,59L176,76L192,76Z" fill="#2792be" stroke="#2792be" stroke-width="1.51"/><path d="M170,30L181,55L194,32Z" fill="#51a8be" stroke="#51a8be" stroke-width="1.51"/><path d="M178,13L170,30L194,32Z" fill="#6bb1bc" stroke="#6bb1bc" stroke-width="1.51"/><path d="M110,-23L132,-22L151,-27Z" fill="#abdac5" stroke="#abdac5" stroke-width="1.51"/><path d="M181,55L176,76L190,59Z" fill="#2d99c0" stroke="#2d99c0" stroke-width="1.51"/><path d="M191,100L169,109L191,115Z" fill="#276caf" stroke="#276caf" stroke-width="1.51"/><path d="M171,96L169,109L191,100Z" fill="#2476b4" stroke="#2476b4" stroke-width="1.51"/><path d="M169,109L176,131L191,115Z" fill="#2b66ac" stroke="#2b66ac" stroke-width="1.51"/><path d="M170,30L156,37L181,55Z" fill="#51aec0" stroke="#51aec0" stroke-width="1.51"/><path d="M156,37L151,51L181,55Z" fill="#47adc1" stroke="#47adc1" stroke-width="1.51"/><path d="M151,51L176,76L181,55Z" fill="#32a2c2" stroke="#32a2c2" stroke-width="1.51"/><path d="M153,81L158,95L171,96Z" fill="#2b89ba" stroke="#2b89ba" stroke-width="1.51"/><path d="M153,81L171,96L176,76Z" fill="#278dbd" stroke="#278dbd" stroke-width="1.51"/><path d="M151,51L153,81L176,76Z" fill="#2f9fc2" stroke="#2f9fc2" stroke-width="1.51"/><path d="M169,109L152,114L176,131Z" fill="#316bad" stroke="#316bad" stroke-width="1.51"/><path d="M152,114L160,137L176,131Z" fill="#3065a4" stroke="#3065a4" stroke-width="1.51"/><path d="M172,-5L157,14L178,13Z" fill="#8bc0bc" stroke="#8bc0bc" stroke-width="1.51"/><path d="M157,14L170,30L178,13Z" fill="#79bbbd" stroke="#79bbbd" stroke-width="1.51"/><path d="M171,-26L150,-8L172,-5Z" fill="#9fc9bb" stroke="#9fc9bb" stroke-width="1.51"/><path d="M151,-27L150,-8L171,-26Z" fill="#a3cdc2" stroke="#a3cdc2" stroke-width="1.51"/><path d="M158,95L169,109L171,96Z" fill="#2a7cb5" stroke="#2a7cb5" stroke-width="1.51"/><path d="M150,-8L157,14L172,-5Z" fill="#94c7bc" stroke="#94c7bc" stroke-width="1.51"/><path d="M75,131L53,131L95,135Z" fill="#677d9a" stroke="#677d9a" stroke-width="1.51"/><path d="M151,51L141,72L153,81Z" fill="#34a5c3" stroke="#34a5c3" stroke-width="1.51"/><path d="M157,14L156,37L170,30Z" fill="#6ab9be" stroke="#6ab9be" stroke-width="1.51"/><path d="M158,95L152,114L169,109Z" fill="#3079b3" stroke="#3079b3" stroke-width="1.51"/><path d="M150,-8L135,11L157,14Z" fill="#91cbbc" stroke="#91cbbc" stroke-width="1.51"/><path d="M137,39L156,37L157,14Z" fill="#67bcbf" stroke="#67bcbf" stroke-width="1.51"/><path d="M135,11L137,39L157,14Z" fill="#7ac5be" stroke="#7ac5be" stroke-width="1.51"/><path d="M152,114L138,137L160,137Z" fill="#3369a2" stroke="#3369a2" stroke-width="1.51"/><path d="M153,81L136,88L158,95Z" fill="#3091bc" stroke="#3091bc" stroke-width="1.51"/><path d="M136,88L152,114L158,95Z" fill="#3284b6" stroke="#3284b6" stroke-width="1.51"/><path d="M132,119L138,137L152,114Z" fill="#3c71ab" stroke="#3c71ab" stroke-width="1.51"/><path d="M137,39L151,51L156,37Z" fill="#54b7c1" stroke="#54b7c1" stroke-width="1.51"/><path d="M112,130L95,135L138,137Z" fill="#46719b" stroke="#46719b" stroke-width="1.51"/><path d="M135,-12L150,-8L151,-27Z" fill="#a5d2be" stroke="#a5d2be" stroke-width="1.51"/><path d="M132,-22L135,-12L151,-27Z" fill="#a7d6c2" stroke="#a7d6c2" stroke-width="1.51"/><path d="M130,53L141,72L151,51Z" fill="#3eb0c3" stroke="#3eb0c3" stroke-width="1.51"/><path d="M136,88L132,119L152,114Z" fill="#3880b3" stroke="#3880b3" stroke-width="1.51"/><path d="M141,72L136,88L153,81Z" fill="#309cc0" stroke="#309cc0" stroke-width="1.51"/><path d="M135,-12L135,11L150,-8Z" fill="#9bd1bc" stroke="#9bd1bc" stroke-width="1.51"/><path d="M137,39L130,53L151,51Z" fill="#4db7c3" stroke="#4db7c3" stroke-width="1.51"/><path d="M114,111L132,119L136,88Z" fill="#4285b3" stroke="#4285b3" stroke-width="1.51"/><path d="M112,92L114,111L136,88Z" fill="#4590b6" stroke="#4590b6" stroke-width="1.51"/><path d="M135,11L116,28L137,39Z" fill="#76c7be" stroke="#76c7be" stroke-width="1.51"/><path d="M130,53L118,59L141,72Z" fill="#43b2c3" stroke="#43b2c3" stroke-width="1.51"/><path d="M118,59L117,81L141,72Z" fill="#42abc2" stroke="#42abc2" stroke-width="1.51"/><path d="M117,81L136,88L141,72Z" fill="#38a1c0" stroke="#38a1c0" stroke-width="1.51"/><path d="M117,12L116,28L135,11Z" fill="#8acebc" stroke="#8acebc" stroke-width="1.51"/><path d="M115,-9L117,12L135,11Z" fill="#9bd5bb" stroke="#9bd5bb" stroke-width="1.51"/><path d="M115,-9L135,11L135,-12Z" fill="#a0d6bb" stroke="#a0d6bb" stroke-width="1.51"/><path d="M132,119L112,130L138,137Z" fill="#4172a3" stroke="#4172a3" stroke-width="1.51"/><path d="M116,28L130,53L137,39Z" fill="#60bfc1" stroke="#60bfc1" stroke-width="1.51"/><path d="M117,81L112,92L136,88Z" fill="#449bbc" stroke="#449bbc" stroke-width="1.51"/><path d="M132,-22L115,-9L135,-12Z" fill="#aad9bc" stroke="#aad9bc" stroke-width="1.51"/><path d="M116,28L118,59L130,53Z" fill="#5bbdc1" stroke="#5bbdc1" stroke-width="1.51"/><path d="M114,111L112,130L132,119Z" fill="#4b7aac" stroke="#4b7aac" stroke-width="1.51"/><path d="M110,-23L115,-9L132,-22Z" fill="#b0dcbf" stroke="#b0dcbf" stroke-width="1.51"/><path d="M58,-28L73,-27L88,-30Z" fill="#cfecc2" stroke="#cfecc2" stroke-width="1.51"/><path d="M99,8L98,33L116,28Z" fill="#8ad0bb" stroke="#8ad0bb" stroke-width="1.51"/><path d="M99,8L116,28L117,12Z" fill="#92d2bb" stroke="#92d2bb" stroke-width="1.51"/><path d="M115,-9L99,8L117,12Z" fill="#a2d8b9" stroke="#a2d8b9" stroke-width="1.51"/><path d="M88,52L101,77L118,59Z" fill="#5ab8c0" stroke="#5ab8c0" stroke-width="1.51"/><path d="M116,28L98,33L118,59Z" fill="#6cc4bf" stroke="#6cc4bf" stroke-width="1.51"/><path d="M98,33L88,52L118,59Z" fill="#68c2bf" stroke="#68c2bf" stroke-width="1.51"/><path d="M101,77L117,81L118,59Z" fill="#4eadc0" stroke="#4eadc0" stroke-width="1.51"/><path d="M94,-3L99,8L115,-9Z" fill="#abdcb8" stroke="#abdcb8" stroke-width="1.51"/><path d="M101,77L112,92L117,81Z" fill="#4ea3bd" stroke="#4ea3bd" stroke-width="1.51"/><path d="M92,110L112,130L114,111Z" fill="#5480ac" stroke="#5480ac" stroke-width="1.51"/><path d="M112,92L92,110L114,111Z" fill="#528cb2" stroke="#528cb2" stroke-width="1.51"/><path d="M97,89L92,110L112,92Z" fill="#5595b5" stroke="#5595b5" stroke-width="1.51"/><path d="M110,-23L94,-3L115,-9Z" fill="#b3deb8" stroke="#b3deb8" stroke-width="1.51"/><path d="M101,77L97,89L112,92Z" fill="#53a1bb" stroke="#53a1bb" stroke-width="1.51"/><path d="M92,110L95,135L112,130Z" fill="#577aa6" stroke="#577aa6" stroke-width="1.51"/><path d="M88,-30L94,-3L110,-23Z" fill="#bae2bc" stroke="#bae2bc" stroke-width="1.51"/><path d="M92,110L75,131L95,135Z" fill="#607da4" stroke="#607da4" stroke-width="1.51"/><path d="M70,18L76,34L98,33Z" fill="#91d3ba" stroke="#91d3ba" stroke-width="1.51"/><path d="M70,18L98,33L99,8Z" fill="#99d6b9" stroke="#99d6b9" stroke-width="1.51"/><path d="M76,77L97,89L101,77Z" fill="#5cabbc" stroke="#5cabbc" stroke-width="1.51"/><path d="M88,52L76,77L101,77Z" fill="#64b7be" stroke="#64b7be" stroke-width="1.51"/><path d="M88,-30L73,-5L94,-3Z" fill="#c0e5b6" stroke="#c0e5b6" stroke-width="1.51"/><path d="M70,93L92,110L97,89Z" fill="#6299b4" stroke="#6299b4" stroke-width="1.51"/><path d="M76,34L88,52L98,33Z" fill="#7dcbbc" stroke="#7dcbbc" stroke-width="1.51"/><path d="M94,-3L70,18L99,8Z" fill="#abddb7" stroke="#abddb7" stroke-width="1.51"/><path d="M73,-5L70,18L94,-3Z" fill="#b6e1b6" stroke="#b6e1b6" stroke-width="1.51"/><path d="M73,-27L73,-5L88,-30Z" fill="#c8e9bd" stroke="#c8e9bd" stroke-width="1.51"/><path d="M76,77L70,93L97,89Z" fill="#68a8b9" stroke="#68a8b9" stroke-width="1.51"/><path d="M70,93L72,109L92,110Z" fill="#6a94b0" stroke="#6a94b0" stroke-width="1.51"/><path d="M72,109L75,131L92,110Z" fill="#6a87ab" stroke="#6a87ab" stroke-width="1.51"/><path d="M72,50L76,77L88,52Z" fill="#72c2be" stroke="#72c2be" stroke-width="1.51"/><path d="M76,34L72,50L88,52Z" fill="#7ecbbd" stroke="#7ecbbd" stroke-width="1.51"/><path d="M37,129L15,137L53,131Z" fill="#828598" stroke="#828598" stroke-width="1.51"/><path d="M51,50L53,77L72,50Z" fill="#86c9bd" stroke="#86c9bd" stroke-width="1.51"/><path d="M49,113L53,131L72,109Z" fill="#7d8ca9" stroke="#7d8ca9" stroke-width="1.51"/><path d="M73,-27L58,-28L73,-5Z" fill="#cfecbb" stroke="#cfecbb" stroke-width="1.51"/><path d="M58,-28L48,-11L73,-5Z" fill="#d4eeb6" stroke="#d4eeb6" stroke-width="1.51"/><path d="M59,8L70,18L73,-5Z" fill="#bce4b6" stroke="#bce4b6" stroke-width="1.51"/><path d="M72,109L53,131L75,131Z" fill="#7584a6" stroke="#7584a6" stroke-width="1.51"/><path d="M72,50L53,77L76,77Z" fill="#7abebd" stroke="#7abebd" stroke-width="1.51"/><path d="M53,77L70,93L76,77Z" fill="#77b1ba" stroke="#77b1ba" stroke-width="1.51"/><path d="M51,38L72,50L76,34Z" fill="#8fd1bb" stroke="#8fd1bb" stroke-width="1.51"/><path d="M70,18L51,38L76,34Z" fill="#9cd7b9" stroke="#9cd7b9" stroke-width="1.51"/><path d="M70,93L56,99L72,109Z" fill="#769bb1" stroke="#769bb1" stroke-width="1.51"/><path d="M51,38L51,50L72,50Z" fill="#92d1bb" stroke="#92d1bb" stroke-width="1.51"/><path d="M48,-11L59,8L73,-5Z" fill="#cae9b4" stroke="#cae9b4" stroke-width="1.51"/><path d="M56,99L49,113L72,109Z" fill="#7c96ae" stroke="#7c96ae" stroke-width="1.51"/><path d="M59,8L51,38L70,18Z" fill="#aedeb7" stroke="#aedeb7" stroke-width="1.51"/><path d="M53,77L56,99L70,93Z" fill="#7daab6" stroke="#7daab6" stroke-width="1.51"/><path d="M29,8L40,40L51,38Z" fill="#b0dfb7" stroke="#b0dfb7" stroke-width="1.51"/><path d="M51,50L39,72L53,77Z" fill="#8cc6bc" stroke="#8cc6bc" stroke-width="1.51"/><path d="M53,77L38,100L56,99Z" fill="#85aab4" stroke="#85aab4" stroke-width="1.51"/><path d="M29,8L51,38L59,8Z" fill="#bde4b6" stroke="#bde4b6" stroke-width="1.51"/><path d="M34,-1L29,8L59,8Z" fill="#d0ecb3" stroke="#d0ecb3" stroke-width="1.51"/><path d="M48,-11L34,-1L59,8Z" fill="#d2edb4" stroke="#d2edb4" stroke-width="1.51"/><path d="M38,52L39,72L51,50Z" fill="#93cebd" stroke="#93cebd" stroke-width="1.51"/><path d="M32,-27L48,-11L58,-28Z" fill="#e0f3bb" stroke="#e0f3bb" stroke-width="1.51"/><path d="M49,113L37,129L53,131Z" fill="#8389a4" stroke="#8389a4" stroke-width="1.51"/><path d="M39,72L38,100L53,77Z" fill="#89b6b9" stroke="#89b6b9" stroke-width="1.51"/><path d="M38,100L49,113L56,99Z" fill="#859dae" stroke="#859dae" stroke-width="1.51"/><path d="M40,40L51,50L51,38Z" fill="#9dd6ba" stroke="#9dd6ba" stroke-width="1.51"/><path d="M38,100L36,108L49,113Z" fill="#889aad" stroke="#889aad" stroke-width="1.51"/><path d="M40,40L38,52L51,50Z" fill="#9bd4bb" stroke="#9bd4bb" stroke-width="1.51"/><path d="M36,108L37,129L49,113Z" fill="#8891a9" stroke="#8891a9" stroke-width="1.51"/><path d="M32,-27L34,-1L48,-11Z" fill="#e0f2b3" stroke="#e0f2b3" stroke-width="1.51"/><path d="M32,-27L14,-4L34,-1Z" fill="#e3f4b2" stroke="#e3f4b2" stroke-width="1.51"/><path d="M36,108L17,111L37,129Z" fill="#8d93a9" stroke="#8d93a9" stroke-width="1.51"/><path d="M16,78L9,97L38,100Z" fill="#93afb4" stroke="#93afb4" stroke-width="1.51"/><path d="M38,52L20,51L39,72Z" fill="#98cfbc" stroke="#98cfbc" stroke-width="1.51"/><path d="M20,51L16,78L39,72Z" fill="#98c9bb" stroke="#98c9bb" stroke-width="1.51"/><path d="M16,78L38,100L39,72Z" fill="#90b8b8" stroke="#90b8b8" stroke-width="1.51"/><path d="M29,8L13,39L40,40Z" fill="#b6e1b6" stroke="#b6e1b6" stroke-width="1.51"/><path d="M20,51L38,52L40,40Z" fill="#a0d6bb" stroke="#a0d6bb" stroke-width="1.51"/><path d="M13,39L20,51L40,40Z" fill="#a8dab9" stroke="#a8dab9" stroke-width="1.51"/><path d="M10,11L13,39L29,8Z" fill="#c8e9b5" stroke="#c8e9b5" stroke-width="1.51"/><path d="M-2,-25L9,-20L32,-27Z" fill="#eff9bb" stroke="#eff9bb" stroke-width="1.51"/><path d="M17,111L36,108L38,100Z" fill="#8d9dad" stroke="#8d9dad" stroke-width="1.51"/><path d="M9,97L17,111L38,100Z" fill="#92a2af" stroke="#92a2af" stroke-width="1.51"/><path d="M9,-20L14,-4L32,-27Z" fill="#eaf7b5" stroke="#eaf7b5" stroke-width="1.51"/><path d="M17,111L15,137L37,129Z" fill="#8d8ca2" stroke="#8d8ca2" stroke-width="1.51"/><path d="M14,-4L29,8L34,-1Z" fill="#daf0b3" stroke="#daf0b3" stroke-width="1.51"/><path d="M14,-4L10,11L29,8Z" fill="#daf0b3" stroke="#daf0b3" stroke-width="1.51"/><path d="M10,11L1,17L13,39Z" fill="#c9e9b5" stroke="#c9e9b5" stroke-width="1.51"/><path d="M1,17L-4,29L13,39Z" fill="#c1e5b8" stroke="#c1e5b8" stroke-width="1.51"/><path d="M-6,118L15,137L17,111Z" fill="#9690a6" stroke="#9690a6" stroke-width="1.51"/><path d="M0,60L16,78L20,51Z" fill="#a0cfbb" stroke="#a0cfbb" stroke-width="1.51"/><path d="M13,39L0,60L20,51Z" fill="#a9d9ba" stroke="#a9d9ba" stroke-width="1.51"/><path d="M0,60L-8,72L16,78Z" fill="#a0cabd" stroke="#a0cabd" stroke-width="1.51"/><path d="M-3,90L9,97L16,78Z" fill="#9bb5b5" stroke="#9bb5b5" stroke-width="1.51"/><path d="M9,97L-6,118L17,111Z" fill="#989eac" stroke="#989eac" stroke-width="1.51"/><path d="M-6,118L-10,137L15,137Z" fill="#918b9e" stroke="#918b9e" stroke-width="1.51"/><path d="M-8,72L-3,90L16,78Z" fill="#9dc0bc" stroke="#9dc0bc" stroke-width="1.51"/><path d="M-11,-6L10,11L14,-4Z" fill="#e3f4b4" stroke="#e3f4b4" stroke-width="1.51"/><path d="M9,-20L-11,-6L14,-4Z" fill="#ecf8b2" stroke="#ecf8b2" stroke-width="1.51"/><path d="M-4,29L0,60L13,39Z" fill="#b2debb" stroke="#b2debb" stroke-width="1.51"/><path d="M-4,29L-20,37L0,60Z" fill="#b4dfc0" stroke="#b4dfc0" stroke-width="1.51"/><path d="M-3,90L-6,118L9,97Z" fill="#99a6b2" stroke="#99a6b2" stroke-width="1.51"/><path d="M-2,-25L-11,-6L9,-20Z" fill="#f1f9b9" stroke="#f1f9b9" stroke-width="1.51"/><path d="M-11,-6L1,17L10,11Z" fill="#def2b6" stroke="#def2b6" stroke-width="1.51"/><path d="M-22,99L-23,110L-6,118Z" fill="#9c9fb6" stroke="#9c9fb6" stroke-width="1.51"/><path d="M-22,99L-6,118L-3,90Z" fill="#9ba6b6" stroke="#9ba6b6" stroke-width="1.51"/><path d="M-20,37L-26,49L0,60Z" fill="#b0dcc5" stroke="#b0dcc5" stroke-width="1.51"/><path d="M-27,10L-4,29L1,17Z" fill="#d2edbc" stroke="#d2edbc" stroke-width="1.51"/><path d="M-11,-6L-27,10L1,17Z" fill="#e1f3bc" stroke="#e1f3bc" stroke-width="1.51"/><path d="M-26,49L-8,72L0,60Z" fill="#a7d3c4" stroke="#a7d3c4" stroke-width="1.51"/><path d="M-8,72L-30,79L-3,90Z" fill="#9fc1c2" stroke="#9fc1c2" stroke-width="1.51"/><path d="M-22,-26L-11,-6L-2,-25Z" fill="#f4fbc0" stroke="#f4fbc0" stroke-width="1.51"/><path d="M-27,10L-20,37L-4,29Z" fill="#c9e9c1" stroke="#c9e9c1" stroke-width="1.51"/><path d="M-30,79L-22,99L-3,90Z" fill="#9eb6c0" stroke="#9eb6c0" stroke-width="1.51"/><path d="M-27,136L-10,137L-6,118Z" fill="#938da4" stroke="#938da4" stroke-width="1.51"/><path d="M-23,110L-27,136L-6,118Z" fill="#9b93b2" stroke="#9b93b2" stroke-width="1.51"/><path d="M-22,-26L-30,-7L-11,-6Z" fill="#f3fbbf" stroke="#f3fbbf" stroke-width="1.51"/><path d="M-26,49L-30,79L-8,72Z" fill="#a6cfc8" stroke="#a6cfc8" stroke-width="1.51"/><path d="M-30,-7L-27,10L-11,-6Z" fill="#eaf7c0" stroke="#eaf7c0" stroke-width="1.51"/><path d="M-27,10L-26,49L-20,37Z" fill="#c1e6c5" stroke="#c1e6c5" stroke-width="1.51"/><path d="M-30,79L-23,110L-22,99Z" fill="#9eaec0" stroke="#9eaec0" stroke-width="1.51"/><path d="M-30,79L-27,136L-23,110Z" fill="#9da1bb" stroke="#9da1bb" stroke-width="1.51"/><path d="M-27,10L-30,-7L-26,49Z" fill="#d7efc4" stroke="#d7efc4" stroke-width="1.51"/><path d="M-30,-7L-30,79L-26,49Z" fill="#b9e1c9" stroke="#b9e1c9" stroke-width="1.51"/></svg>