<?xml version="1.0" encoding="utf8" standalone="no"?>
<svg viewBox="0 0 269.79742 257.63879" xmlns="http://www.w3.org/2000/svg">
<path d="m243.76589,129.56938c.01803,60.50823-49.02851,109.56941-109.53675,109.56941s-109.55477-49.06118-109.53674-109.56941c-.01803-60.50823 49.02851-109.5694 109.53674-109.5694s109.55478,49.06117 109.53675,109.5694z" fill="#939dac" stroke="#000" stroke-linecap="round" stroke-linejoin="round" stroke-width="4"/>
<path d="m243.34375,139.15625c-20.83428,45.69619-66.93568,77.46875-120.4375,77.46875-30.32693,0-58.25087-10.21076-80.5625-27.375 19.53399,30.03088 53.3785,49.875 91.875,49.875 57.27879,0 104.28565-43.94808 109.125-99.96875z" fill-opacity=".31373"/>
<path d="m50.17235,230.06939c-.00676,22.68002 18.37697,25.56941 41.05679,25.56941s41.06355-2.88939 41.05679-25.56941c.00676-22.68003-19.14977-35.19944-41.05679-41.06941-34.0809-9.13195-41.06355,18.38938-41.05679,41.06941z" fill="#939dac" stroke="#000" stroke-linecap="round" stroke-linejoin="round" stroke-width="4"/>
<path d="m123.18726,242.85935c1.64372,6.12693-3.25033,8.27494-9.54609,9.96189s-11.60814,2.27373-13.24811-3.85421 2.12826-12.46256 8.42403-14.14951 12.7302,1.9139 14.37017,8.04183z" fill="#fff" stroke="#000" stroke-linecap="round" stroke-linejoin="round" stroke-width="4"/>
<path d="m225.27263,104.56941c.01424,47.80679-38.73676,86.5694-86.54348,86.5694s-86.55773-38.76261-86.54348-86.5694c-.01425-47.8068 38.73675-86.56941 86.54348-86.56941s86.55772,38.76261 86.54348,86.56941z" fill-opacity=".31373"/>
<path d="m265.51118,90.10303c-8.9527,33.44116-36.06311,55.23668-60.54628,48.67644s-37.06372-38.99093-28.09641-72.42818c8.95271-33.44117 29.98087-32.53744 54.46405-25.9772s43.14596,16.29168 34.17864,49.72894z" fill="#939dac" stroke="#000" stroke-linecap="round" stroke-linejoin="round" stroke-width="4"/>
<path d="m4.28625,90.10303c8.9527,33.44116 36.06312,55.23668 60.54628,48.67644s37.06372-38.99093 28.09641-72.42818c-8.95271-33.44117-29.98087-32.53744-54.46405-25.9772s-43.14596,16.29168-34.17864,49.72894z" fill="#939dac" stroke="#000" stroke-linecap="round" stroke-linejoin="round" stroke-width="4"/>
<path d="m198.94239,38.17938c-9.74363,2.97329-17.48343,11.08322-22.0625,28.1875-8.96731,33.43725 3.61057,65.84601 28.09375,72.40625 2.66744.71474 5.35957,1.06182 8.0625,1.125 6.68101-12.28076 10.47321-26.37913 10.46875-41.34375 .007-23.49223-9.37328-44.77701-24.5625-60.375z" fill-opacity=".31373"/>
<path d="m205.16114,43.24188c-14.76884-.15353-26.62626,6.6342-32.78125,29.625-4.96843,18.52625-3.33943,36.72702 3.28125,50.40625 4.96468-23.47808 27.19718-52.56455 60.0625-54 13.32801-.58212 28.80847,8.04643 24.3125-2.46875s-18.41181-15.96999-33.21875-19.9375c-7.65099-2.05008-14.94314-3.55521-21.65625-3.625z" fill-opacity=".31373"/>
<path d="m65.15025,43.24188c14.76884-.15353 26.62626,6.6342 32.78125,29.625 4.96843,18.52625 3.33943,36.72702-3.28125,50.40625-4.96468-23.47808-27.19718-52.56455-60.0625-54-13.32801-.58212-28.80847,8.04643-24.3125-2.46875s18.41181-15.96999 33.21875-19.9375c7.65099-2.05008 14.94314-3.55521 21.65625-3.625z" fill-opacity=".31373"/>
<path d="m220.77263,88.56941c.01424,47.80679-38.73676,86.5694-86.54348,86.5694s-86.55773-38.76261-86.54348-86.5694c-.01425-47.8068 16.0774-86.56941 86.54348-86.56941 71.87966,0 86.55772,38.76261 86.54348,86.56941z" fill="#939dac" stroke="#000" stroke-linecap="round" stroke-linejoin="round" stroke-width="4"/>
<path d="m130.59961,72.0991c.00373,12.51895-10.14383,22.66953-22.66277,22.66953s-22.66651-10.15058-22.66278-22.66953 10.14383-22.66952 22.66278-22.66952 22.6665,10.15058 22.66277,22.66952z" fill="#fff" stroke="#000" stroke-linecap="round" stroke-linejoin="round" stroke-width="4"/>
<path d="m183.33181,72.0991c.00373,12.51895-10.14383,22.66953-22.66277,22.66953s-22.66651-10.15058-22.66278-22.66953 10.14383-22.66952 22.66278-22.66952 22.6665,10.15058 22.66277,22.66952z" fill="#fff" stroke="#000" stroke-linecap="round" stroke-linejoin="round" stroke-width="4"/>
<path d="m163.18712,76.0991c.00125,4.17298-3.38127,7.55651-7.55425,7.55651s-7.5555-3.38353-7.55425-7.55651 3.38127-7.5565 7.55425-7.5565 7.5555,3.38352 7.55425,7.5565z"/>
<path d="m121.15678,76.0991c.00125,4.17298-3.38127,7.55651-7.55425,7.55651s-7.5555-3.38353-7.55425-7.55651 3.38127-7.5565 7.55425-7.5565 7.5555,3.38352 7.55425,7.5565z"/>
<path d="m224.28593,230.06939c.00676,22.68002-18.37697,25.56941-41.05679,25.56941s-41.06355-2.88939-41.05679-25.56941c-.00676-22.68003 19.14977-35.19944 41.05679-41.06941 34.0809-9.13195 41.06355,18.38938 41.05679,41.06941z" fill="#939dac" stroke="#000" stroke-linecap="round" stroke-linejoin="round" stroke-width="4"/>
<path d="m104.22364,193.49188c5.61763,7.3619 9.06536,16.55461 9.0625,27.90625 .00676,26.82262-18.38268,30.24999-41.0625,30.25-3.50974,0-6.90451-.106-10.15625-.34375 7.4399,3.61047 17.75137,4.34375 29.15625,4.34375 22.67982,1e-005 41.06926-2.91373 41.0625-25.59375 .00538-18.02475-12.09901-29.61041-28.0625-36.5625z" fill-opacity=".31373"/>
<path d="m157.45516,220.49509c.00471,15.78762-12.79217,28.58851-28.57956,28.58851s-28.58426-12.80089-28.57956-28.58851 12.79218-28.58851 28.57956-28.58851 28.58427,12.80089 28.57956,28.58851z" fill="#939dac" stroke="#000" stroke-linecap="round" stroke-linejoin="round" stroke-width="4"/>
<path d="m81.74607,249.49765c-1.63996,6.12793-6.95234,5.54114-13.2481,3.85421s-11.18981-3.83497-9.5461-9.96191 8.07441-9.72876 14.37018-8.04181 10.06772,8.02258 8.42402,14.14951z" fill="#fff" stroke="#000" stroke-linecap="round" stroke-linejoin="round" stroke-width="4"/>
<path d="m219.25489,72.46063c-4.93062,47.57829-45.14603,84.6875-94.03125,84.6875-26.651,0-50.72089-11.0408-67.90625-28.78125 14.39966,27.79416 43.44138,46.78125 76.90625,46.78125 47.80672,0 86.57673-38.78696 86.5625-86.59375 .00164-5.50394-.55059-10.87491-1.53125-16.09375z" fill-opacity=".31373"/>
<path d="m157.39224,218.99188h-45.68095c7.66175-63.28605-7.36265-94.75-7.36265-94.75h60.40625c0,0-15.0244,32.17105-7.36265,94.75z" fill="#939dac" fill-rule="evenodd"/>
<path d="m164.75489,124.24188c0,0-15.0244,32.17105-7.36265,94.75m-45.68095,0c7.66175-63.28605-7.36265-94.75-7.36265-94.75" fill="none" stroke="#000" stroke-linecap="round" stroke-width="4"/>
<path d="m187.44007,131.7751c6.51971,5.20753 6.05256,33.51666 2.18653,38.21281s-26.85629-23.58252-22.92691-32.28942c4.13397-9.16025 14.60666-10.82262 20.74038-5.92339z" fill="#fff" fill-rule="evenodd" stroke="#000" stroke-linejoin="round" stroke-width="4"/>
<path d="m118.69239,113.03052c14.5-14.5 31-.5 31-.5" fill="none" stroke="#000" stroke-linecap="round" stroke-width="4"/>
<path d="m123.65615,135.53054c9.85649-7.88572 21.0725-.27193 21.0725-.27193" fill="none" stroke="#000" stroke-linecap="round" stroke-width="4"/>
<path d="m125.31074,158.03054c8.30865-5.68096 17.76333-.1959 17.76333-.1959" fill="none" stroke="#000" stroke-linecap="round" stroke-width="4"/>
<path d="m80.76456,131.7751c-6.51971,5.20753-6.05256,33.51666-2.18653,38.21281s26.85629-23.58252 22.92691-32.28942c-4.13397-9.16025-14.60666-10.82262-20.74038-5.92339z" fill="#fff" fill-rule="evenodd" stroke="#000" stroke-linejoin="round" stroke-width="4"/>
<path d="m216.18726,242.85935c1.64372,6.12693-3.25033,8.27494-9.54609,9.96189s-11.60814,2.27373-13.24811-3.85421 2.12826-12.46256 8.42403-14.14951 12.7302,1.9139 14.37017,8.04183z" fill="#fff" stroke="#000" stroke-linecap="round" stroke-linejoin="round" stroke-width="4"/>
<path d="m174.74607,249.49765c-1.63996,6.12793-6.95234,5.54114-13.2481,3.85421s-11.18981-3.83497-9.5461-9.96191 8.07441-9.72876 14.37018-8.04181 10.06772,8.02258 8.42402,14.14951z" fill="#fff" stroke="#000" stroke-linecap="round" stroke-linejoin="round" stroke-width="4"/>
<path d="m195.02829,248.48705c.00194,6.34359-5.28129,7.15174-11.79914,7.15174s-11.80109-.80815-11.79915-7.15174 5.28129-11.48708 11.79915-11.48708 11.80108,5.1435 11.79914,11.48708z" fill="#fff" stroke="#000" stroke-linecap="round" stroke-linejoin="round" stroke-width="4"/>
<path d="m102.02829,248.48705c.00194,6.34359-5.28129,7.15174-11.79914,7.15174s-11.80109-.80815-11.79915-7.15174 5.28129-11.48708 11.79915-11.48708 11.80108,5.1435 11.79914,11.48708z" fill="#fff" stroke="#000" stroke-linecap="round" stroke-linejoin="round" stroke-width="4"/>
<path d="m155.31739,209.61688c-.41117,15.42492-13.0375,27.8125-28.5625,27.8125-11.94458-1e-005-22.16574-7.34526-26.4375-17.75-.00752.27119-.03133.53948-.03125.8125-.0047,15.78762 12.80637,28.59376 28.59375,28.59375s28.56721-12.80612 28.5625-28.59375c.00115-3.85312-.74372-7.52036-2.125-10.875z" fill-opacity=".31373"/>
<path d="m201.75,187.8125c10.56132,8.15257 13.34809,24.67184 13.34375,39.25 .00699,23.4685-19.00771,26.46875-42.46875,26.46875-5.09088,0-9.94534-.16475-14.46875-.625 6.93508,2.2199 15.62252,2.71875 25.0625,2.71875 22.67982,0 41.06926-2.88249 41.0625-25.5625 .0053-17.76894-4.28585-38.49245-22.53125-42.25z" fill-opacity=".31373"/>
<path d="m94.65625,130.46875c.77658.84337 1.50304,1.81479 2.125,2.90625 4.5447,7.97535-13.95951,36.28392-19.21875,34.65625 .30552.84577.62854,1.51753 1,1.96875 3.86602,4.69614 26.86688-23.6056 22.9375-32.3125-1.56691-3.47204-4.03696-5.85011-6.84375-7.21875z" fill-opacity=".31373" fill-rule="evenodd"/>
</svg>
