<?xml version="1.0" encoding="utf8" standalone="no"?>
<svg viewBox="0 0 744.09448819 1052.3622047" xmlns="http://www.w3.org/2000/svg">
<defs>
<filter height="1.3" width="1.3" x="-.15" y="-.15">
<feTurbulence baseFrequency=".1" numOctaves="5" result="result1" seed="0" type="fractalNoise"/>
<feGaussianBlur result="result2" stdDeviation="2"/>
<feDisplacementMap in="SourceGraphic" in2="result2" result="fbSourceGraphic" scale="50" xChannelSelector="R" yChannelSelector="B"/>
<feColorMatrix in="fbSourceGraphic" result="fbSourceGraphicAlpha" values="0 0 0 -1 0 0 0 0 -1 0 0 0 0 -1 0 0 0 0 1 0"/>
<feTurbulence baseFrequency="0.002 0.107" numOctaves="1"/>
<feColorMatrix result="result91" values="2 0 0 0 0 0 0 0 0 0 0 0 0 0 0 0 0 0 0.5 0.5"/>
<feDisplacementMap in="fbSourceGraphic" in2="result91" result="fbSourceGraphic" scale="14.3" xChannelSelector="R" yChannelSelector="A"/>
<feColorMatrix in="fbSourceGraphic" result="fbSourceGraphicAlpha" values="0 0 0 -1 0 0 0 0 -1 0 0 0 0 -1 0 0 0 0 1 0"/>
<feColorMatrix in="fbSourceGraphic" result="fbSourceGraphicAlpha" values="1 0 0 -1 0 1 0 1 -1 0 1 0 0 -1 0 -0.8 -1 0 3.7 -2.4"/>
<feGaussianBlur in="fbSourceGraphicAlpha" result="result0" stdDeviation=".5"/>
<feSpecularLighting in="result0" result="result8" specularConstant=".75" specularExponent="6" surfaceScale="7">
<feDistantLight azimuth="235" elevation="15"/>
</feSpecularLighting>
<feDiffuseLighting diffuseConstant=".2" in="result0" result="result6" surfaceScale="20">
<feDistantLight azimuth="235" elevation="25"/>
</feDiffuseLighting>
<feBlend in2="fbSourceGraphic" mode="screen" result="result7"/>
<feComposite in="result8" in2="result7" k2="1" k3="1" operator="arithmetic" result="result9"/>
<feComposite in="result9" in2="fbSourceGraphic" operator="in" result="result2"/>
</filter>
</defs>
<path d="m81.39032,419.37115c0,17.13465-18.58063,31.02503-41.501,31.02503s-41.501-13.89038-41.501-31.02503 18.58063-31.02502 41.501-31.02502 41.501,13.89038 41.501,31.02502z" fill="#4a0" transform="matrix(-.50218,-1.58833,.76322,-.24131,140.87292,812.62496)"/>
<path d="m-32.38992,431.86176c0,5.69949-4.62035,10.31984-10.31985,10.31984s-10.31985-4.62035-10.31985-10.31984 4.62035-10.31985 10.31985-10.31985 10.31985,4.62035 10.31985,10.31985z" fill="#55d400" transform="matrix(-.71126,-1.01525,1.01525,-.71126,-30.98173,974.4017)"/>
<path d="m-32.38992,431.86176c0,5.69949-4.62035,10.31984-10.31985,10.31984s-10.31985-4.62035-10.31985-10.31984 4.62035-10.31985 10.31985-10.31985 10.31985,4.62035 10.31985,10.31985z" fill="#55d400" transform="matrix(-.71126,-1.01525,1.01525,-.71126,-5.93833,978.8111)"/>
<path d="m-32.38992,431.86176c0,5.69949-4.62035,10.31984-10.31985,10.31984s-10.31985-4.62035-10.31985-10.31984 4.62035-10.31985 10.31985-10.31985 10.31985,4.62035 10.31985,10.31985z" fill="#55d400" transform="matrix(-.71126,-1.01525,1.01525,-.71126,7.96521,956.8738)"/>
<path d="m81.39032,419.37115c0,17.13465-18.58063,31.02503-41.501,31.02503s-41.501-13.89038-41.501-31.02503 18.58063-31.02502 41.501-31.02502 41.501,13.89038 41.501,31.02502z" fill="#4a0" transform="matrix(.50218,-1.58833,-.76322,-.24131,603.22156,812.62496)"/>
<path d="m-32.38992,431.86176c0,5.69949-4.62035,10.31984-10.31985,10.31984s-10.31985-4.62035-10.31985-10.31984 4.62035-10.31985 10.31985-10.31985 10.31985,4.62035 10.31985,10.31985z" fill="#55d400" transform="matrix(.71126,-1.01525,-1.01525,-.71126,775.07621,974.4017)"/>
<path d="m-32.38992,431.86176c0,5.69949-4.62035,10.31984-10.31985,10.31984s-10.31985-4.62035-10.31985-10.31984 4.62035-10.31985 10.31985-10.31985 10.31985,4.62035 10.31985,10.31985z" fill="#55d400" transform="matrix(.71126,-1.01525,-1.01525,-.71126,750.03281,978.8111)"/>
<path d="m-32.38992,431.86176c0,5.69949-4.62035,10.31984-10.31985,10.31984s-10.31985-4.62035-10.31985-10.31984 4.62035-10.31985 10.31985-10.31985 10.31985,4.62035 10.31985,10.31985z" fill="#55d400" transform="matrix(.71126,-1.01525,-1.01525,-.71126,736.12927,956.8738)"/>
<path d="m350.5127,391.87305a114.7991,114.7991 0 1,1 -229.59821,0 114.7991,114.7991 0 1,1 229.59821,0z" fill="#55d400" transform="matrix(1.29249,0,0,.75684,69.20716,309.62141)"/>
<path d="m350.5127,391.87305a114.7991,114.7991 0 1,1 -229.59821,0 114.7991,114.7991 0 1,1 229.59821,0z" fill="#55d400" transform="matrix(1.9025,0,0,1.16669,-78.21543,-8.08625)"/>
<path d="m350.5127,391.87305a114.7991,114.7991 0 1,1 -229.59821,0 114.7991,114.7991 0 1,1 229.59821,0z" fill="#338000" transform="matrix(.80985,0,0,.80985,54.84138,30.17384)"/>
<path d="m350.5127,391.87305a114.7991,114.7991 0 1,1 -229.59821,0 114.7991,114.7991 0 1,1 229.59821,0z" fill="#338000" transform="matrix(.80985,0,0,.80985,307.46589,30.17384)"/>
<path d="m350.5127,391.87305a114.7991,114.7991 0 1,1 -229.59821,0 114.7991,114.7991 0 1,1 229.59821,0z" fill="#fff" transform="matrix(.66403,0,0,.66403,98.51603,87.31736)"/>
<path d="m350.5127,391.87305a114.7991,114.7991 0 1,1 -229.59821,0 114.7991,114.7991 0 1,1 229.59821,0z" fill="#fff" transform="matrix(.66403,0,0,.66403,332.53547,87.31736)"/>
<path d="m350.5127,391.87305a114.7991,114.7991 0 1,1 -26.49855-73.36106l-88.30056,73.36106z" transform="matrix(.42542,0,0,.42542,368.82537,180.82494)"/>
<path d="m350.5127,391.87305a114.7991,114.7991 0 1,1 -26.49855-73.36106l-88.30056,73.36106z" transform="matrix(-.42542,0,0,.42542,375.26912,180.82494)"/>
<path d="m350.5127,391.87305a114.7991,114.7991 0 1,1 -229.59821,0 114.7991,114.7991 0 1,1 229.59821,0z" fill="#f00" transform="matrix(.28116,0,0,.28116,181.85246,386.106)"/>
<path d="m350.5127,391.87305a114.7991,114.7991 0 1,1 -229.59821,0 114.7991,114.7991 0 1,1 229.59821,0z" fill="#f00" transform="matrix(.28116,0,0,.28116,429.69361,386.106)"/>
<path d="m263.31515,508.69287c7.62809,20.29523 53.35778,35.90236 108.73208,35.90236s101.104-15.60713 108.7321-35.90236c-27.15026,15.39914-65.79513,25.09245-108.7321,25.09245s-81.58183-9.69331-108.73208-25.09245z"/>
<path d="m334.42554,560.79694a101.13351,55.60329 0 1,1 -202.26701,0 101.13351,55.60329 0 1,1 202.26701,0z" fill="#fff" transform="matrix(1.05999,0,0,.71689,126.57742,236.10021)"/>
<path d="m81.39032,419.37115c0,17.13465-18.58063,31.02503-41.501,31.02503s-41.501-13.89038-41.501-31.02503 18.58063-31.02502 41.501-31.02502 41.501,13.89038 41.501,31.02502z" fill="#4a0" transform="matrix(-.50218,-1.58833,.76322,-.24131,220.87292,802.62496)"/>
<path d="m-32.38992,431.86176c0,5.69949-4.62035,10.31984-10.31985,10.31984s-10.31985-4.62035-10.31985-10.31984 4.62035-10.31985 10.31985-10.31985 10.31985,4.62035 10.31985,10.31985z" fill="#55d400" transform="matrix(-.71126,-1.01525,1.01525,-.71126,49.01827,964.4017)"/>
<path d="m-32.38992,431.86176c0,5.69949-4.62035,10.31984-10.31985,10.31984s-10.31985-4.62035-10.31985-10.31984 4.62035-10.31985 10.31985-10.31985 10.31985,4.62035 10.31985,10.31985z" fill="#55d400" transform="matrix(-.71126,-1.01525,1.01525,-.71126,74.06167,968.8111)"/>
<path d="m-32.38992,431.86176c0,5.69949-4.62035,10.31984-10.31985,10.31984s-10.31985-4.62035-10.31985-10.31984 4.62035-10.31985 10.31985-10.31985 10.31985,4.62035 10.31985,10.31985z" fill="#55d400" transform="matrix(-.71126,-1.01525,1.01525,-.71126,87.96521,946.8738)"/>
<path d="m81.39032,419.37115c0,17.13465-18.58063,31.02503-41.501,31.02503s-41.501-13.89038-41.501-31.02503 18.58063-31.02502 41.501-31.02502 41.501,13.89038 41.501,31.02502z" fill="#4a0" transform="matrix(.50218,-1.58833,-.76322,-.24131,523.22156,802.62496)"/>
<path d="m-32.38992,431.86176c0,5.69949-4.62035,10.31984-10.31985,10.31984s-10.31985-4.62035-10.31985-10.31984 4.62035-10.31985 10.31985-10.31985 10.31985,4.62035 10.31985,10.31985z" fill="#55d400" transform="matrix(.71126,-1.01525,-1.01525,-.71126,695.07621,964.4017)"/>
<path d="m-32.38992,431.86176c0,5.69949-4.62035,10.31984-10.31985,10.31984s-10.31985-4.62035-10.31985-10.31984 4.62035-10.31985 10.31985-10.31985 10.31985,4.62035 10.31985,10.31985z" fill="#55d400" transform="matrix(.71126,-1.01525,-1.01525,-.71126,670.03281,968.8111)"/>
<path d="m-32.38992,431.86176c0,5.69949-4.62035,10.31984-10.31985,10.31984s-10.31985-4.62035-10.31985-10.31984 4.62035-10.31985 10.31985-10.31985 10.31985,4.62035 10.31985,10.31985z" fill="#55d400" transform="matrix(.71126,-1.01525,-1.01525,-.71126,656.12927,946.8738)"/>
</svg>
