<?xml version="1.0" encoding="utf8" standalone="no"?>
<svg height="275.341" viewBox="0 0 223.074 275.341" width="223.07401" xml:space="preserve" xmlns="http://www.w3.org/2000/svg"><defs><pattern height="69" patternUnits="userSpaceOnUse" viewBox="2.125 -70.896 69 69" width="69" x="-162.462" y="422.021">
	
		<path d="m71.125-1.896h-69v-69h69z" fill="none"></path>
		<path d="m71.125-1.896h-69v-69h69z" fill="#f7bc60"></path>
		
			<path d="m61.772-71.653c.018.072.007.127-.026.19-.053.101-.112.063-.165.128-.05.063-.099.276-.079.362-.169.058-.01.227-.015.35-.002.05-.041.105-.045.161-.01.119.017.266.068.37 .097.198.268.413.435.544 .19.148.365.572.608.631 .177.042.384-.104.543-.143 .18-.043.397.01.571-.053 .222-.079.127-.337.288-.45 .104-.074.287-.01.406-.051 .2-.069.339-.263.376-.46 .016-.082.01-.145.039-.221 .039-.103.111-.16.09-.293-.01-.062-.052-.12-.064-.187-.022-.114.002-.224 0-.337-.003-.2.017-.379-.078-.55-.38-.688-1.236-.929-1.975-.789-.18.034-.287.126-.442.207-.17.088-.139.166-.318.224-.081.026-.216.124-.215.224 .001.115.005.051.012.169-.021.011-.021-.005-.03-.025" fill="#fff"></path>
			<path d="m54.105-71.653c.018.072.007.127-.026.19-.053.101-.112.063-.165.128-.05.063-.099.276-.079.362-.169.058-.01.227-.015.35-.002.05-.041.105-.045.161-.01.119.017.266.068.37 .097.198.268.413.435.544 .19.148.365.572.608.631 .177.042.384-.104.543-.143 .18-.043.397.01.571-.053 .222-.079.127-.337.288-.45 .104-.074.287-.01.406-.051 .2-.069.339-.263.376-.46 .016-.082.01-.145.039-.221 .039-.103.111-.16.09-.293-.01-.062-.052-.12-.064-.187-.022-.114.002-.224 0-.337-.003-.2.017-.379-.078-.55-.38-.688-1.236-.929-1.975-.789-.18.034-.287.126-.442.207-.17.088-.139.166-.318.224-.081.026-.216.124-.215.224 .001.115.005.051.012.169-.021.011-.021-.005-.03-.025" fill="#fff"></path>
			<path d="m46.439-71.653c.018.072.007.127-.026.19-.053.101-.112.063-.165.128-.05.063-.099.276-.079.362-.169.058-.01.227-.015.35-.002.05-.041.105-.045.161-.01.119.017.266.068.37 .097.198.268.413.435.544 .19.148.365.572.608.631 .177.042.384-.104.543-.143 .18-.043.397.01.571-.053 .222-.079.127-.337.288-.45 .104-.074.287-.01.406-.051 .2-.069.339-.263.376-.46 .016-.082.01-.145.039-.221 .039-.103.111-.16.09-.293-.01-.062-.052-.12-.064-.187-.022-.114.002-.224 0-.337-.003-.2.017-.379-.078-.55-.38-.688-1.236-.929-1.975-.789-.18.034-.287.126-.442.207-.17.088-.139.166-.318.224-.081.026-.216.124-.215.224 .001.115.005.051.012.169-.021.011-.021-.005-.03-.025" fill="#fff"></path>
			<path d="m38.772-71.653c.018.072.007.127-.026.19-.053.101-.112.063-.165.128-.05.063-.099.276-.079.362-.169.058-.01.227-.015.35-.002.05-.041.105-.045.161-.01.119.017.266.068.37 .097.198.268.413.435.544 .19.148.365.572.608.631 .177.042.384-.104.543-.143 .18-.043.397.01.571-.053 .222-.079.127-.337.288-.45 .104-.074.287-.01.406-.051 .2-.069.339-.263.376-.46 .016-.082.01-.145.039-.221 .039-.103.111-.16.09-.293-.01-.062-.052-.12-.064-.187-.022-.114.002-.224 0-.337-.003-.2.017-.379-.078-.55-.38-.688-1.236-.929-1.975-.789-.18.034-.287.126-.442.207-.17.088-.139.166-.318.224-.081.026-.216.124-.215.224 .001.115.005.051.012.169-.021.011-.021-.005-.03-.025" fill="#fff"></path>
			<path d="m31.105-71.653c.018.072.007.127-.026.19-.053.101-.112.063-.165.128-.05.063-.099.276-.079.362-.169.058-.01.227-.015.35-.002.05-.041.105-.045.161-.01.119.017.266.068.37 .097.198.268.413.435.544 .19.148.365.572.608.631 .177.042.384-.104.543-.143 .18-.043.397.01.571-.053 .222-.079.127-.337.288-.45 .104-.074.287-.01.406-.051 .2-.069.339-.263.376-.46 .016-.082.01-.145.039-.221 .039-.103.111-.16.09-.293-.01-.062-.052-.12-.064-.187-.022-.114.002-.224 0-.337-.003-.2.017-.379-.078-.55-.38-.688-1.236-.929-1.975-.789-.18.034-.287.126-.442.207-.17.088-.139.166-.318.224-.081.026-.216.124-.215.224 .001.115.005.051.012.169-.021.011-.021-.005-.03-.025" fill="#fff"></path>
			<path d="m23.439-71.653c.018.072.007.127-.026.19-.053.101-.112.063-.165.128-.05.063-.099.276-.079.362-.169.058-.01.227-.015.35-.002.05-.041.105-.045.161-.01.119.017.266.068.37 .097.198.268.413.435.544 .19.148.365.572.608.631 .177.042.384-.104.543-.143 .18-.043.397.01.571-.053 .222-.079.127-.337.288-.45 .104-.074.287-.01.406-.051 .2-.069.339-.263.376-.46 .016-.082.01-.145.039-.221 .039-.103.111-.16.09-.293-.01-.062-.052-.12-.064-.187-.022-.114.002-.224 0-.337-.003-.2.017-.379-.078-.55-.38-.688-1.236-.929-1.975-.789-.18.034-.287.126-.442.207-.17.088-.139.166-.318.224-.081.026-.216.124-.215.224 .001.115.005.051.012.169-.021.011-.021-.005-.03-.025" fill="#fff"></path>
			<path d="m15.772-71.653c.018.072.007.127-.026.19-.053.101-.112.063-.165.128-.05.063-.099.276-.079.362-.169.058-.01.227-.015.35-.002.05-.041.105-.045.161-.01.119.017.266.068.37 .097.198.268.413.435.544 .19.148.365.572.608.631 .177.042.384-.104.543-.143 .18-.043.397.01.571-.053 .222-.079.127-.337.288-.45 .104-.074.287-.01.406-.051 .2-.069.339-.263.376-.46 .016-.082.01-.145.039-.221 .039-.103.111-.16.09-.293-.01-.062-.052-.12-.064-.187-.022-.114.002-.224 0-.337-.003-.2.017-.379-.078-.55-.38-.688-1.236-.929-1.975-.789-.18.034-.287.126-.442.207-.17.088-.139.166-.318.224-.081.026-.216.124-.215.224 .001.115.005.051.012.169-.021.011-.021-.005-.03-.025" fill="#fff"></path>
			<path d="m8.105-71.653c.018.072.007.127-.026.19-.053.101-.112.063-.165.128-.05.063-.099.276-.079.362-.169.058-.01.227-.015.35-.002.05-.041.105-.045.161-.01.119.017.266.068.37 .097.198.268.413.435.544 .19.148.365.572.608.631 .177.042.384-.104.543-.143 .18-.043.397.01.571-.053 .222-.079.127-.337.288-.45 .104-.074.287-.01.406-.051 .2-.069.339-.263.376-.46 .016-.082.01-.145.039-.221 .039-.103.111-.16.09-.293-.01-.062-.052-.12-.064-.187-.022-.114.002-.224 0-.337-.003-.2.017-.379-.078-.55-.38-.688-1.236-.929-1.975-.789-.18.034-.287.126-.442.207-.17.088-.139.166-.318.224-.081.026-.216.124-.215.224 .001.115.005.051.012.169-.021.011-.021-.005-.03-.025" fill="#fff"></path>
			<path d="m.439-71.653c.018.072.008.127-.026.19-.052.101-.113.063-.165.128-.051.063-.099.276-.079.362-.169.058-.01.227-.015.35-.002.05-.041.105-.045.161-.01.119.017.266.068.37 .097.198.268.413.435.544 .19.148.365.572.608.631 .177.042.384-.104.543-.143 .18-.043.397.01.571-.053 .222-.079.127-.337.288-.45 .104-.074.287-.01.406-.051 .2-.07.339-.263.376-.46 .016-.082.01-.145.039-.221 .038-.103.111-.16.09-.293-.01-.062-.051-.12-.064-.187-.021-.114.002-.224 0-.337-.003-.2.017-.379-.078-.55-.38-.688-1.236-.929-1.975-.789-.18.034-.287.126-.442.207-.17.088-.139.166-.318.224-.081.026-.215.124-.215.224 .002.115.005.051.012.169-.021.011-.021-.005-.03-.025" fill="#fff"></path>
		
		
			<path d="m69.439-71.653c.018.072.008.127-.026.19-.052.101-.113.063-.165.128-.051.063-.099.276-.079.362-.169.058-.01.227-.015.35-.002.05-.041.105-.045.161-.01.119.017.266.068.37 .097.198.268.413.435.544 .19.148.365.572.608.631 .177.042.384-.104.543-.143 .18-.043.397.01.571-.053 .222-.079.127-.337.288-.45 .104-.074.287-.01.406-.051 .2-.07.339-.263.376-.46 .016-.082.01-.145.039-.221 .038-.103.111-.16.09-.293-.01-.062-.051-.12-.064-.187-.021-.114.002-.224 0-.337-.003-.2.017-.379-.078-.55-.38-.688-1.236-.929-1.975-.789-.18.034-.287.126-.442.207-.17.088-.139.166-.318.224-.081.026-.215.124-.215.224 .002.115.005.051.012.169-.021.011-.021-.005-.03-.025" fill="#fff"></path>
		
		<path d="m.495-71.653c.018.072.008.127-.026.19-.052.101-.113.063-.165.128-.051.063-.099.276-.079.362-.169.058-.01.227-.015.35-.002.05-.041.105-.045.161-.01.119.017.266.068.37 .097.198.268.413.435.544 .19.148.365.572.608.631 .177.042.384-.104.543-.143 .18-.043.397.01.571-.053 .222-.079.127-.337.288-.45 .104-.074.287-.01.406-.051 .2-.07.339-.263.376-.46 .016-.082.01-.145.039-.221 .038-.103.111-.16.09-.293-.01-.062-.051-.12-.064-.187-.021-.114.002-.224 0-.337-.003-.2.017-.379-.078-.55-.38-.688-1.236-.929-1.975-.789-.18.034-.287.126-.442.207-.17.088-.139.166-.318.224-.081.026-.215.124-.215.224 .003.116.006.052.013.17-.021.011-.021-.005-.03-.025" fill="#fff"></path>
		
			
				<path d="m69.439-64.001c.018.072.007.127-.026.19-.053.101-.112.063-.165.128-.05.063-.099.276-.079.362-.169.058-.01.227-.015.35-.002.05-.041.105-.045.161-.01.119.017.266.068.37 .097.198.268.413.435.544 .19.148.365.572.608.631 .177.042.384-.104.543-.143 .18-.043.397.01.571-.053 .222-.079.127-.337.288-.45 .104-.074.287-.01.406-.051 .2-.069.339-.263.376-.46 .016-.082.01-.145.039-.221 .039-.103.111-.16.09-.293-.01-.062-.052-.12-.064-.187-.022-.114.002-.224 0-.337-.003-.2.017-.379-.078-.55-.38-.688-1.236-.929-1.975-.789-.18.034-.287.126-.442.207-.17.088-.139.166-.318.224-.081.026-.216.124-.215.224 .001.115.005.051.012.169-.021.011-.021-.005-.03-.025" fill="#fff"></path>
				<path d="m61.778-64.001c.018.072.007.127-.026.19-.053.101-.112.063-.165.128-.05.063-.099.276-.079.362-.169.058-.009.227-.015.35-.002.05-.041.105-.045.161-.01.119.017.266.068.37 .097.198.268.413.435.544 .19.148.365.572.608.631 .177.042.384-.104.543-.143 .18-.043.397.01.571-.053 .222-.079.127-.337.288-.45 .104-.074.287-.01.406-.051 .2-.069.339-.263.376-.46 .016-.082.01-.145.039-.221 .039-.103.111-.16.09-.293-.01-.062-.052-.12-.064-.187-.022-.114.002-.224 0-.337-.003-.2.017-.379-.078-.55-.38-.688-1.236-.929-1.975-.789-.18.034-.287.126-.442.207-.17.088-.139.166-.318.224-.081.026-.216.124-.215.224 .001.115.005.051.012.169-.021.011-.021-.005-.03-.025" fill="#fff"></path>
				<path d="m54.118-64.001c.018.072.007.127-.026.19-.053.101-.112.063-.165.128-.05.063-.099.276-.079.362-.169.058-.009.227-.015.35-.002.05-.041.105-.045.161-.01.119.017.266.068.37 .097.198.268.413.435.544 .19.148.365.572.608.631 .177.042.384-.104.543-.143 .18-.043.397.01.571-.053 .222-.079.127-.337.288-.45 .104-.074.287-.01.406-.051 .2-.069.339-.263.376-.46 .016-.082.01-.145.039-.221 .039-.103.111-.16.09-.293-.01-.062-.052-.12-.064-.187-.022-.114.002-.224 0-.337-.003-.2.017-.379-.078-.55-.38-.688-1.236-.929-1.975-.789-.18.034-.287.126-.442.207-.17.088-.139.166-.318.224-.081.026-.216.124-.215.224 .001.115.005.051.012.169-.021.011-.021-.005-.03-.025" fill="#fff"></path>
				<path d="m46.458-64.001c.018.072.007.127-.026.19-.053.101-.112.063-.165.128-.05.063-.099.276-.079.362-.169.058-.009.227-.015.35-.002.05-.041.105-.045.161-.01.119.017.266.068.37 .097.198.268.413.435.544 .19.148.365.572.608.631 .177.042.384-.104.543-.143 .18-.043.397.01.571-.053 .222-.079.127-.337.288-.45 .104-.074.287-.01.406-.051 .2-.069.339-.263.376-.46 .016-.082.01-.145.039-.221 .039-.103.111-.16.09-.293-.01-.062-.052-.12-.064-.187-.022-.114.002-.224 0-.337-.003-.2.017-.379-.078-.55-.38-.688-1.236-.929-1.975-.789-.18.034-.287.126-.442.207-.17.088-.139.166-.318.224-.081.026-.216.124-.215.224 .001.115.005.051.012.169-.021.011-.021-.005-.03-.025" fill="#fff"></path>
				<path d="m38.797-64.001c.018.072.007.127-.026.19-.053.101-.112.063-.165.128-.05.063-.099.276-.079.362-.169.058-.009.227-.015.35-.002.05-.041.105-.045.161-.01.119.017.266.068.37 .097.198.268.413.435.544 .19.148.365.572.608.631 .177.042.384-.104.543-.143 .18-.043.397.01.571-.053 .222-.079.127-.337.288-.45 .104-.074.287-.01.406-.051 .2-.069.339-.263.376-.46 .016-.082.01-.145.039-.221 .039-.103.111-.16.09-.293-.01-.062-.052-.12-.064-.187-.022-.114.002-.224 0-.337-.003-.2.017-.379-.078-.55-.38-.688-1.236-.929-1.975-.789-.18.034-.287.126-.442.207-.17.088-.139.166-.318.224-.081.026-.216.124-.215.224 .001.115.005.051.012.169-.021.011-.021-.005-.03-.025" fill="#fff"></path>
				<path d="m31.137-64.001c.018.072.007.127-.026.19-.053.101-.112.063-.165.128-.05.063-.099.276-.079.362-.169.058-.009.227-.015.35-.002.05-.041.105-.045.161-.01.119.017.266.068.37 .097.198.268.413.435.544 .19.148.365.572.608.631 .177.042.384-.104.543-.143 .18-.043.397.01.571-.053 .222-.079.127-.337.288-.45 .104-.074.287-.01.406-.051 .2-.069.339-.263.376-.46 .016-.082.01-.145.039-.221 .039-.103.111-.16.09-.293-.01-.062-.052-.12-.064-.187-.022-.114.002-.224 0-.337-.003-.2.017-.379-.078-.55-.38-.688-1.236-.929-1.975-.789-.18.034-.287.126-.442.207-.17.088-.139.166-.318.224-.081.026-.216.124-.215.224 .001.115.005.051.012.169-.021.011-.021-.005-.03-.025" fill="#fff"></path>
				<path d="m23.477-64.001c.018.072.007.127-.026.19-.053.101-.112.063-.165.128-.05.063-.099.276-.079.362-.169.058-.009.227-.015.35-.002.05-.041.105-.045.161-.01.119.017.266.068.37 .097.198.268.413.435.544 .19.148.365.572.608.631 .177.042.384-.104.543-.143 .18-.043.397.01.571-.053 .222-.079.127-.337.288-.45 .104-.074.287-.01.406-.051 .2-.069.339-.263.376-.46 .016-.082.01-.145.039-.221 .039-.103.111-.16.09-.293-.01-.062-.052-.12-.064-.187-.022-.114.002-.224 0-.337-.003-.2.017-.379-.078-.55-.38-.688-1.236-.929-1.975-.789-.18.034-.287.126-.442.207-.17.088-.139.166-.318.224-.081.026-.216.124-.215.224 .001.115.005.051.012.169-.021.011-.021-.005-.03-.025" fill="#fff"></path>
				<path d="m15.816-64.001c.018.072.007.127-.026.19-.053.101-.112.063-.165.128-.05.063-.099.276-.079.362-.169.058-.009.227-.015.35-.002.05-.041.105-.045.161-.01.119.017.266.068.37 .097.198.268.413.435.544 .19.148.365.572.608.631 .177.042.384-.104.543-.143 .18-.043.397.01.571-.053 .222-.079.127-.337.288-.45 .104-.074.287-.01.406-.051 .2-.069.339-.263.376-.46 .016-.082.01-.145.039-.221 .039-.103.111-.16.09-.293-.01-.062-.052-.12-.064-.187-.022-.114.002-.224 0-.337-.003-.2.017-.379-.078-.55-.38-.688-1.236-.929-1.975-.789-.18.034-.287.126-.442.207-.17.088-.139.166-.318.224-.081.026-.216.124-.215.224 .001.115.005.051.012.169-.021.011-.021-.005-.03-.025" fill="#fff"></path>
				<path d="m8.156-64.001c.018.072.007.127-.026.19-.053.101-.112.063-.165.128-.05.063-.099.276-.079.362-.169.058-.009.227-.015.35-.002.05-.041.105-.045.161-.01.119.017.266.068.37 .097.198.268.413.435.544 .19.148.365.572.608.631 .177.042.384-.104.543-.143 .18-.043.397.01.571-.053 .222-.079.127-.337.288-.45 .104-.074.287-.01.406-.051 .2-.069.339-.263.376-.46 .016-.082.01-.145.039-.221 .039-.103.111-.16.09-.293-.01-.062-.052-.12-.064-.187-.022-.114.002-.224 0-.337-.003-.2.017-.379-.078-.55-.38-.688-1.236-.929-1.975-.789-.18.034-.287.126-.442.207-.17.088-.139.166-.318.224-.081.026-.216.124-.215.224 .001.115.005.051.012.169-.021.011-.021-.005-.03-.025" fill="#fff"></path>
				<path d="m.495-64.001c.018.072.007.127-.026.19-.053.101-.112.063-.165.128-.05.063-.099.276-.079.362-.169.058-.01.227-.015.35-.002.05-.041.105-.045.161-.01.119.017.266.068.37 .097.198.268.413.435.544 .19.148.365.572.608.631 .177.042.384-.104.543-.143 .181-.042.398.011.572-.052 .222-.079.127-.337.288-.45 .104-.074.287-.01.406-.051 .2-.069.339-.263.376-.46 .016-.082.01-.145.039-.221 .039-.103.111-.16.09-.293-.01-.062-.052-.12-.064-.187-.022-.114.002-.224 0-.337-.003-.2.017-.379-.078-.55-.38-.688-1.236-.929-1.975-.789-.18.034-.287.126-.442.207-.17.088-.139.166-.318.224-.081.026-.216.124-.215.224 .001.115.005.051.012.169-.021.011-.021-.005-.03-.025" fill="#fff"></path>
			
			
				<path d="m69.439-56.348c.018.072.007.127-.026.19-.053.101-.112.063-.165.128-.05.063-.099.276-.079.362-.169.058-.01.227-.015.35-.002.05-.041.105-.045.161-.01.119.017.266.068.37 .097.198.268.413.435.544 .19.148.365.572.608.631 .177.042.384-.104.543-.143 .18-.043.397.01.571-.053 .222-.079.127-.337.288-.45 .104-.074.287-.01.406-.051 .2-.069.339-.263.376-.46 .016-.082.01-.145.039-.221 .039-.103.111-.16.09-.293-.01-.062-.052-.12-.064-.187-.022-.114.002-.224 0-.337-.003-.2.017-.379-.078-.55-.38-.688-1.236-.929-1.975-.789-.18.034-.287.126-.442.207-.17.088-.139.166-.318.224-.081.026-.216.124-.215.224 .001.115.005.051.012.169-.021.011-.021-.005-.03-.025" fill="#fff"></path>
				<path d="m61.778-56.348c.018.072.007.127-.026.19-.053.101-.112.063-.165.128-.05.063-.099.276-.079.362-.169.058-.009.227-.015.35-.002.05-.041.105-.045.161-.01.119.017.266.068.37 .097.198.268.413.435.544 .19.148.365.572.608.631 .177.042.384-.104.543-.143 .18-.043.397.01.571-.053 .222-.079.127-.337.288-.45 .104-.074.287-.01.406-.051 .2-.069.339-.263.376-.46 .016-.082.01-.145.039-.221 .039-.103.111-.16.09-.293-.01-.062-.052-.12-.064-.187-.022-.114.002-.224 0-.337-.003-.2.017-.379-.078-.55-.38-.688-1.236-.929-1.975-.789-.18.034-.287.126-.442.207-.17.088-.139.166-.318.224-.081.026-.216.124-.215.224 .001.115.005.051.012.169-.021.011-.021-.005-.03-.025" fill="#fff"></path>
				<path d="m54.118-56.348c.018.072.007.127-.026.19-.053.101-.112.063-.165.128-.05.063-.099.276-.079.362-.169.058-.009.227-.015.35-.002.05-.041.105-.045.161-.01.119.017.266.068.37 .097.198.268.413.435.544 .19.148.365.572.608.631 .177.042.384-.104.543-.143 .18-.043.397.01.571-.053 .222-.079.127-.337.288-.45 .104-.074.287-.01.406-.051 .2-.069.339-.263.376-.46 .016-.082.01-.145.039-.221 .039-.103.111-.16.09-.293-.01-.062-.052-.12-.064-.187-.022-.114.002-.224 0-.337-.003-.2.017-.379-.078-.55-.38-.688-1.236-.929-1.975-.789-.18.034-.287.126-.442.207-.17.088-.139.166-.318.224-.081.026-.216.124-.215.224 .001.115.005.051.012.169-.021.011-.021-.005-.03-.025" fill="#fff"></path>
				<path d="m46.458-56.348c.018.072.007.127-.026.19-.053.101-.112.063-.165.128-.05.063-.099.276-.079.362-.169.058-.009.227-.015.35-.002.05-.041.105-.045.161-.01.119.017.266.068.37 .097.198.268.413.435.544 .19.148.365.572.608.631 .177.042.384-.104.543-.143 .18-.043.397.01.571-.053 .222-.079.127-.337.288-.45 .104-.074.287-.01.406-.051 .2-.069.339-.263.376-.46 .016-.082.01-.145.039-.221 .039-.103.111-.16.09-.293-.01-.062-.052-.12-.064-.187-.022-.114.002-.224 0-.337-.003-.2.017-.379-.078-.55-.38-.688-1.236-.929-1.975-.789-.18.034-.287.126-.442.207-.17.088-.139.166-.318.224-.081.026-.216.124-.215.224 .001.115.005.051.012.169-.021.011-.021-.005-.03-.025" fill="#fff"></path>
				<path d="m38.797-56.348c.018.072.007.127-.026.19-.053.101-.112.063-.165.128-.05.063-.099.276-.079.362-.169.058-.009.227-.015.35-.002.05-.041.105-.045.161-.01.119.017.266.068.37 .097.198.268.413.435.544 .19.148.365.572.608.631 .177.042.384-.104.543-.143 .18-.043.397.01.571-.053 .222-.079.127-.337.288-.45 .104-.074.287-.01.406-.051 .2-.069.339-.263.376-.46 .016-.082.01-.145.039-.221 .039-.103.111-.16.09-.293-.01-.062-.052-.12-.064-.187-.022-.114.002-.224 0-.337-.003-.2.017-.379-.078-.55-.38-.688-1.236-.929-1.975-.789-.18.034-.287.126-.442.207-.17.088-.139.166-.318.224-.081.026-.216.124-.215.224 .001.115.005.051.012.169-.021.011-.021-.005-.03-.025" fill="#fff"></path>
				<path d="m31.137-56.348c.018.072.007.127-.026.19-.053.101-.112.063-.165.128-.05.063-.099.276-.079.362-.169.058-.009.227-.015.35-.002.05-.041.105-.045.161-.01.119.017.266.068.37 .097.198.268.413.435.544 .19.148.365.572.608.631 .177.042.384-.104.543-.143 .18-.043.397.01.571-.053 .222-.079.127-.337.288-.45 .104-.074.287-.01.406-.051 .2-.069.339-.263.376-.46 .016-.082.01-.145.039-.221 .039-.103.111-.16.09-.293-.01-.062-.052-.12-.064-.187-.022-.114.002-.224 0-.337-.003-.2.017-.379-.078-.55-.38-.688-1.236-.929-1.975-.789-.18.034-.287.126-.442.207-.17.088-.139.166-.318.224-.081.026-.216.124-.215.224 .001.115.005.051.012.169-.021.011-.021-.005-.03-.025" fill="#fff"></path>
				<path d="m23.477-56.348c.018.072.007.127-.026.19-.053.101-.112.063-.165.128-.05.063-.099.276-.079.362-.169.058-.009.227-.015.35-.002.05-.041.105-.045.161-.01.119.017.266.068.37 .097.198.268.413.435.544 .19.148.365.572.608.631 .177.042.384-.104.543-.143 .18-.043.397.01.571-.053 .222-.079.127-.337.288-.45 .104-.074.287-.01.406-.051 .2-.069.339-.263.376-.46 .016-.082.01-.145.039-.221 .039-.103.111-.16.09-.293-.01-.062-.052-.12-.064-.187-.022-.114.002-.224 0-.337-.003-.2.017-.379-.078-.55-.38-.688-1.236-.929-1.975-.789-.18.034-.287.126-.442.207-.17.088-.139.166-.318.224-.081.026-.216.124-.215.224 .001.115.005.051.012.169-.021.011-.021-.005-.03-.025" fill="#fff"></path>
				<path d="m15.816-56.348c.018.072.007.127-.026.19-.053.101-.112.063-.165.128-.05.063-.099.276-.079.362-.169.058-.009.227-.015.35-.002.05-.041.105-.045.161-.01.119.017.266.068.37 .097.198.268.413.435.544 .19.148.365.572.608.631 .177.042.384-.104.543-.143 .18-.043.397.01.571-.053 .222-.079.127-.337.288-.45 .104-.074.287-.01.406-.051 .2-.069.339-.263.376-.46 .016-.082.01-.145.039-.221 .039-.103.111-.16.09-.293-.01-.062-.052-.12-.064-.187-.022-.114.002-.224 0-.337-.003-.2.017-.379-.078-.55-.38-.688-1.236-.929-1.975-.789-.18.034-.287.126-.442.207-.17.088-.139.166-.318.224-.081.026-.216.124-.215.224 .001.115.005.051.012.169-.021.011-.021-.005-.03-.025" fill="#fff"></path>
				<path d="m8.156-56.348c.018.072.007.127-.026.19-.053.101-.112.063-.165.128-.05.063-.099.276-.079.362-.169.058-.009.227-.015.35-.002.05-.041.105-.045.161-.01.119.017.266.068.37 .097.198.268.413.435.544 .19.148.365.572.608.631 .177.042.384-.104.543-.143 .18-.043.397.01.571-.053 .222-.079.127-.337.288-.45 .104-.074.287-.01.406-.051 .2-.069.339-.263.376-.46 .016-.082.01-.145.039-.221 .039-.103.111-.16.09-.293-.01-.062-.052-.12-.064-.187-.022-.114.002-.224 0-.337-.003-.2.017-.379-.078-.55-.38-.688-1.236-.929-1.975-.789-.18.034-.287.126-.442.207-.17.088-.139.166-.318.224-.081.026-.216.124-.215.224 .001.115.005.051.012.169-.021.011-.021-.005-.03-.025" fill="#fff"></path>
				<path d="m.495-56.348c.018.072.007.127-.026.19-.053.101-.112.063-.165.128-.05.063-.099.276-.079.362-.169.058-.01.227-.015.35-.002.05-.041.105-.045.161-.01.119.017.266.068.37 .097.198.268.413.435.544 .19.148.365.572.608.631 .177.042.384-.104.543-.143 .18-.043.397.01.571-.053 .222-.079.127-.337.288-.45 .104-.074.287-.01.406-.051 .2-.069.339-.263.376-.46 .016-.082.01-.145.039-.221 .039-.103.111-.16.09-.293-.01-.062-.052-.12-.064-.187-.022-.114.002-.224 0-.337-.003-.2.017-.379-.078-.55-.38-.688-1.236-.929-1.975-.789-.18.034-.287.126-.442.207-.17.088-.139.166-.318.224-.081.026-.216.124-.215.224 .003.117.006.053.013.171-.021.011-.021-.005-.03-.025" fill="#fff"></path>
			
			
				<path d="m69.439-48.695c.018.072.007.127-.026.19-.053.101-.112.063-.165.128-.05.063-.099.276-.079.362-.169.058-.01.227-.015.35-.002.05-.041.105-.045.161-.01.119.017.266.068.37 .097.198.268.413.435.544 .19.148.365.572.608.631 .177.042.384-.104.543-.143 .18-.043.397.01.571-.053 .222-.079.127-.337.288-.45 .104-.074.287-.01.406-.051 .2-.069.339-.263.376-.46 .016-.082.01-.145.039-.221 .039-.103.111-.16.09-.293-.01-.062-.052-.12-.064-.187-.022-.114.002-.224 0-.337-.003-.2.017-.379-.078-.55-.38-.688-1.236-.929-1.975-.789-.18.034-.287.126-.442.207-.17.088-.139.166-.318.224-.081.026-.216.124-.215.224 .001.115.005.051.012.169-.021.011-.021-.005-.03-.025" fill="#fff"></path>
				<path d="m61.778-48.695c.018.072.007.127-.026.19-.053.101-.112.063-.165.128-.05.063-.099.276-.079.362-.169.058-.009.227-.015.35-.002.05-.041.105-.045.161-.01.119.017.266.068.37 .097.198.268.413.435.544 .19.148.365.572.608.631 .177.042.384-.104.543-.143 .18-.043.397.01.571-.053 .222-.079.127-.337.288-.45 .104-.074.287-.01.406-.051 .2-.069.339-.263.376-.46 .016-.082.01-.145.039-.221 .039-.103.111-.16.09-.293-.01-.062-.052-.12-.064-.187-.022-.114.002-.224 0-.337-.003-.2.017-.379-.078-.55-.38-.688-1.236-.929-1.975-.789-.18.034-.287.126-.442.207-.17.088-.139.166-.318.224-.081.026-.216.124-.215.224 .001.115.005.051.012.169-.021.011-.021-.005-.03-.025" fill="#fff"></path>
				<path d="m54.118-48.695c.018.072.007.127-.026.19-.053.101-.112.063-.165.128-.05.063-.099.276-.079.362-.169.058-.009.227-.015.35-.002.05-.041.105-.045.161-.01.119.017.266.068.37 .097.198.268.413.435.544 .19.148.365.572.608.631 .177.042.384-.104.543-.143 .18-.043.397.01.571-.053 .222-.079.127-.337.288-.45 .104-.074.287-.01.406-.051 .2-.069.339-.263.376-.46 .016-.082.01-.145.039-.221 .039-.103.111-.16.09-.293-.01-.062-.052-.12-.064-.187-.022-.114.002-.224 0-.337-.003-.2.017-.379-.078-.55-.38-.688-1.236-.929-1.975-.789-.18.034-.287.126-.442.207-.17.088-.139.166-.318.224-.081.026-.216.124-.215.224 .001.115.005.051.012.169-.021.011-.021-.005-.03-.025" fill="#fff"></path>
				<path d="m46.458-48.695c.018.072.007.127-.026.19-.053.101-.112.063-.165.128-.05.063-.099.276-.079.362-.169.058-.009.227-.015.35-.002.05-.041.105-.045.161-.01.119.017.266.068.37 .097.198.268.413.435.544 .19.148.365.572.608.631 .177.042.384-.104.543-.143 .18-.043.397.01.571-.053 .222-.079.127-.337.288-.45 .104-.074.287-.01.406-.051 .2-.069.339-.263.376-.46 .016-.082.01-.145.039-.221 .039-.103.111-.16.09-.293-.01-.062-.052-.12-.064-.187-.022-.114.002-.224 0-.337-.003-.2.017-.379-.078-.55-.38-.688-1.236-.929-1.975-.789-.18.034-.287.126-.442.207-.17.088-.139.166-.318.224-.081.026-.216.124-.215.224 .001.115.005.051.012.169-.021.011-.021-.005-.03-.025" fill="#fff"></path>
				<path d="m38.797-48.695c.018.072.007.127-.026.19-.053.101-.112.063-.165.128-.05.063-.099.276-.079.362-.169.058-.009.227-.015.35-.002.05-.041.105-.045.161-.01.119.017.266.068.37 .097.198.268.413.435.544 .19.148.365.572.608.631 .177.042.384-.104.543-.143 .18-.043.397.01.571-.053 .222-.079.127-.337.288-.45 .104-.074.287-.01.406-.051 .2-.069.339-.263.376-.46 .016-.082.01-.145.039-.221 .039-.103.111-.16.09-.293-.01-.062-.052-.12-.064-.187-.022-.114.002-.224 0-.337-.003-.2.017-.379-.078-.55-.38-.688-1.236-.929-1.975-.789-.18.034-.287.126-.442.207-.17.088-.139.166-.318.224-.081.026-.216.124-.215.224 .001.115.005.051.012.169-.021.011-.021-.005-.03-.025" fill="#fff"></path>
				<path d="m31.137-48.695c.018.072.007.127-.026.19-.053.101-.112.063-.165.128-.05.063-.099.276-.079.362-.169.058-.009.227-.015.35-.002.05-.041.105-.045.161-.01.119.017.266.068.37 .097.198.268.413.435.544 .19.148.365.572.608.631 .177.042.384-.104.543-.143 .18-.043.397.01.571-.053 .222-.079.127-.337.288-.45 .104-.074.287-.01.406-.051 .2-.069.339-.263.376-.46 .016-.082.01-.145.039-.221 .039-.103.111-.16.09-.293-.01-.062-.052-.12-.064-.187-.022-.114.002-.224 0-.337-.003-.2.017-.379-.078-.55-.38-.688-1.236-.929-1.975-.789-.18.034-.287.126-.442.207-.17.088-.139.166-.318.224-.081.026-.216.124-.215.224 .001.115.005.051.012.169-.021.011-.021-.005-.03-.025" fill="#fff"></path>
				<path d="m23.477-48.695c.018.072.007.127-.026.19-.053.101-.112.063-.165.128-.05.063-.099.276-.079.362-.169.058-.009.227-.015.35-.002.05-.041.105-.045.161-.01.119.017.266.068.37 .097.198.268.413.435.544 .19.148.365.572.608.631 .177.042.384-.104.543-.143 .18-.043.397.01.571-.053 .222-.079.127-.337.288-.45 .104-.074.287-.01.406-.051 .2-.069.339-.263.376-.46 .016-.082.01-.145.039-.221 .039-.103.111-.16.09-.293-.01-.062-.052-.12-.064-.187-.022-.114.002-.224 0-.337-.003-.2.017-.379-.078-.55-.38-.688-1.236-.929-1.975-.789-.18.034-.287.126-.442.207-.17.088-.139.166-.318.224-.081.026-.216.124-.215.224 .001.115.005.051.012.169-.021.011-.021-.005-.03-.025" fill="#fff"></path>
				<path d="m15.816-48.695c.018.072.007.127-.026.19-.053.101-.112.063-.165.128-.05.063-.099.276-.079.362-.169.058-.009.227-.015.35-.002.05-.041.105-.045.161-.01.119.017.266.068.37 .097.198.268.413.435.544 .19.148.365.572.608.631 .177.042.384-.104.543-.143 .18-.043.397.01.571-.053 .222-.079.127-.337.288-.45 .104-.074.287-.01.406-.051 .2-.069.339-.263.376-.46 .016-.082.01-.145.039-.221 .039-.103.111-.16.09-.293-.01-.062-.052-.12-.064-.187-.022-.114.002-.224 0-.337-.003-.2.017-.379-.078-.55-.38-.688-1.236-.929-1.975-.789-.18.034-.287.126-.442.207-.17.088-.139.166-.318.224-.081.026-.216.124-.215.224 .001.115.005.051.012.169-.021.011-.021-.005-.03-.025" fill="#fff"></path>
				<path d="m8.156-48.695c.018.072.007.127-.026.19-.053.101-.112.063-.165.128-.05.063-.099.276-.079.362-.169.058-.009.227-.015.35-.002.05-.041.105-.045.161-.01.119.017.266.068.37 .097.198.268.413.435.544 .19.148.365.572.608.631 .177.042.384-.104.543-.143 .18-.043.397.01.571-.053 .222-.079.127-.337.288-.45 .104-.074.287-.01.406-.051 .2-.069.339-.263.376-.46 .016-.082.01-.145.039-.221 .039-.103.111-.16.09-.293-.01-.062-.052-.12-.064-.187-.022-.114.002-.224 0-.337-.003-.2.017-.379-.078-.55-.38-.688-1.236-.929-1.975-.789-.18.034-.287.126-.442.207-.17.088-.139.166-.318.224-.081.026-.216.124-.215.224 .001.115.005.051.012.169-.021.011-.021-.005-.03-.025" fill="#fff"></path>
				<path d="m.495-48.695c.018.072.007.127-.026.19-.053.101-.112.063-.165.128-.05.063-.099.276-.079.362-.169.058-.01.227-.015.35-.002.05-.041.105-.045.161-.01.119.017.266.068.37 .097.198.268.413.435.544 .19.148.365.572.608.631 .177.042.384-.104.543-.143 .18-.043.397.01.571-.053 .222-.079.127-.337.288-.45 .104-.074.287-.01.406-.051 .2-.069.339-.263.376-.46 .016-.082.01-.145.039-.221 .039-.103.111-.16.09-.293-.01-.062-.052-.12-.064-.187-.022-.114.002-.224 0-.337-.003-.2.017-.379-.078-.55-.38-.688-1.236-.929-1.975-.789-.18.034-.287.126-.442.207-.17.088-.139.166-.318.224-.081.026-.216.124-.215.224 .001.115.005.051.012.169-.021.011-.021-.005-.03-.025" fill="#fff"></path>
			
			
				<path d="m69.439-41.042c.018.072.007.127-.026.19-.053.101-.112.063-.165.128-.05.063-.099.276-.079.362-.169.058-.01.227-.015.35-.002.05-.041.105-.045.161-.01.119.017.266.068.37 .097.198.268.413.435.544 .19.148.365.572.608.631 .177.042.384-.104.543-.143 .18-.043.397.01.571-.053 .222-.079.127-.337.288-.45 .104-.074.287-.01.406-.051 .2-.069.339-.263.376-.46 .016-.082.01-.145.039-.221 .039-.103.111-.16.09-.293-.01-.062-.052-.12-.064-.187-.022-.114.002-.224 0-.337-.003-.2.017-.379-.078-.55-.38-.688-1.236-.929-1.975-.789-.18.034-.287.126-.442.207-.17.088-.139.166-.318.224-.081.026-.216.124-.215.224 .001.115.005.051.012.169-.021.011-.021-.005-.03-.025" fill="#fff"></path>
				<path d="m61.778-41.042c.018.072.007.127-.026.19-.053.101-.112.063-.165.128-.05.063-.099.276-.079.362-.169.058-.009.227-.015.35-.002.05-.041.105-.045.161-.01.119.017.266.068.37 .097.198.268.413.435.544 .19.148.365.572.608.631 .177.042.384-.104.543-.143 .18-.043.397.01.571-.053 .222-.079.127-.337.288-.45 .104-.074.287-.01.406-.051 .2-.069.339-.263.376-.46 .016-.082.01-.145.039-.221 .039-.103.111-.16.09-.293-.01-.062-.052-.12-.064-.187-.022-.114.002-.224 0-.337-.003-.2.017-.379-.078-.55-.38-.688-1.236-.929-1.975-.789-.18.034-.287.126-.442.207-.17.088-.139.166-.318.224-.081.026-.216.124-.215.224 .001.115.005.051.012.169-.021.011-.021-.005-.03-.025" fill="#fff"></path>
				<path d="m54.118-41.042c.018.072.007.127-.026.19-.053.101-.112.063-.165.128-.05.063-.099.276-.079.362-.169.058-.009.227-.015.35-.002.05-.041.105-.045.161-.01.119.017.266.068.37 .097.198.268.413.435.544 .19.148.365.572.608.631 .177.042.384-.104.543-.143 .18-.043.397.01.571-.053 .222-.079.127-.337.288-.45 .104-.074.287-.01.406-.051 .2-.069.339-.263.376-.46 .016-.082.01-.145.039-.221 .039-.103.111-.16.09-.293-.01-.062-.052-.12-.064-.187-.022-.114.002-.224 0-.337-.003-.2.017-.379-.078-.55-.38-.688-1.236-.929-1.975-.789-.18.034-.287.126-.442.207-.17.088-.139.166-.318.224-.081.026-.216.124-.215.224 .001.115.005.051.012.169-.021.011-.021-.005-.03-.025" fill="#fff"></path>
				<path d="m46.458-41.042c.018.072.007.127-.026.19-.053.101-.112.063-.165.128-.05.063-.099.276-.079.362-.169.058-.009.227-.015.35-.002.05-.041.105-.045.161-.01.119.017.266.068.37 .097.198.268.413.435.544 .19.148.365.572.608.631 .177.042.384-.104.543-.143 .18-.043.397.01.571-.053 .222-.079.127-.337.288-.45 .104-.074.287-.01.406-.051 .2-.069.339-.263.376-.46 .016-.082.01-.145.039-.221 .039-.103.111-.16.09-.293-.01-.062-.052-.12-.064-.187-.022-.114.002-.224 0-.337-.003-.2.017-.379-.078-.55-.38-.688-1.236-.929-1.975-.789-.18.034-.287.126-.442.207-.17.088-.139.166-.318.224-.081.026-.216.124-.215.224 .001.115.005.051.012.169-.021.011-.021-.005-.03-.025" fill="#fff"></path>
				<path d="m38.797-41.042c.018.072.007.127-.026.19-.053.101-.112.063-.165.128-.05.063-.099.276-.079.362-.169.058-.009.227-.015.35-.002.05-.041.105-.045.161-.01.119.017.266.068.37 .097.198.268.413.435.544 .19.148.365.572.608.631 .177.042.384-.104.543-.143 .18-.043.397.01.571-.053 .222-.079.127-.337.288-.45 .104-.074.287-.01.406-.051 .2-.069.339-.263.376-.46 .016-.082.01-.145.039-.221 .039-.103.111-.16.09-.293-.01-.062-.052-.12-.064-.187-.022-.114.002-.224 0-.337-.003-.2.017-.379-.078-.55-.38-.688-1.236-.929-1.975-.789-.18.034-.287.126-.442.207-.17.088-.139.166-.318.224-.081.026-.216.124-.215.224 .001.115.005.051.012.169-.021.011-.021-.005-.03-.025" fill="#fff"></path>
				<path d="m31.137-41.042c.018.072.007.127-.026.19-.053.101-.112.063-.165.128-.05.063-.099.276-.079.362-.169.058-.009.227-.015.35-.002.05-.041.105-.045.161-.01.119.017.266.068.37 .097.198.268.413.435.544 .19.148.365.572.608.631 .177.042.384-.104.543-.143 .18-.043.397.01.571-.053 .222-.079.127-.337.288-.45 .104-.074.287-.01.406-.051 .2-.069.339-.263.376-.46 .016-.082.01-.145.039-.221 .039-.103.111-.16.09-.293-.01-.062-.052-.12-.064-.187-.022-.114.002-.224 0-.337-.003-.2.017-.379-.078-.55-.38-.688-1.236-.929-1.975-.789-.18.034-.287.126-.442.207-.17.088-.139.166-.318.224-.081.026-.216.124-.215.224 .001.115.005.051.012.169-.021.011-.021-.005-.03-.025" fill="#fff"></path>
				<path d="m23.477-41.042c.018.072.007.127-.026.19-.053.101-.112.063-.165.128-.05.063-.099.276-.079.362-.169.058-.009.227-.015.35-.002.05-.041.105-.045.161-.01.119.017.266.068.37 .097.198.268.413.435.544 .19.148.365.572.608.631 .177.042.384-.104.543-.143 .18-.043.397.01.571-.053 .222-.079.127-.337.288-.45 .104-.074.287-.01.406-.051 .2-.069.339-.263.376-.46 .016-.082.01-.145.039-.221 .039-.103.111-.16.09-.293-.01-.062-.052-.12-.064-.187-.022-.114.002-.224 0-.337-.003-.2.017-.379-.078-.55-.38-.688-1.236-.929-1.975-.789-.18.034-.287.126-.442.207-.17.088-.139.166-.318.224-.081.026-.216.124-.215.224 .001.115.005.051.012.169-.021.011-.021-.005-.03-.025" fill="#fff"></path>
				<path d="m15.816-41.042c.018.072.007.127-.026.19-.053.101-.112.063-.165.128-.05.063-.099.276-.079.362-.169.058-.009.227-.015.35-.002.05-.041.105-.045.161-.01.119.017.266.068.37 .097.198.268.413.435.544 .19.148.365.572.608.631 .177.042.384-.104.543-.143 .18-.043.397.01.571-.053 .222-.079.127-.337.288-.45 .104-.074.287-.01.406-.051 .2-.069.339-.263.376-.46 .016-.082.01-.145.039-.221 .039-.103.111-.16.09-.293-.01-.062-.052-.12-.064-.187-.022-.114.002-.224 0-.337-.003-.2.017-.379-.078-.55-.38-.688-1.236-.929-1.975-.789-.18.034-.287.126-.442.207-.17.088-.139.166-.318.224-.081.026-.216.124-.215.224 .001.115.005.051.012.169-.021.011-.021-.005-.03-.025" fill="#fff"></path>
				<path d="m8.156-41.042c.018.072.007.127-.026.19-.053.101-.112.063-.165.128-.05.063-.099.276-.079.362-.169.058-.009.227-.015.35-.002.05-.041.105-.045.161-.01.119.017.266.068.37 .097.198.268.413.435.544 .19.148.365.572.608.631 .177.042.384-.104.543-.143 .18-.043.397.01.571-.053 .222-.079.127-.337.288-.45 .104-.074.287-.01.406-.051 .2-.069.339-.263.376-.46 .016-.082.01-.145.039-.221 .039-.103.111-.16.09-.293-.01-.062-.052-.12-.064-.187-.022-.114.002-.224 0-.337-.003-.2.017-.379-.078-.55-.38-.688-1.236-.929-1.975-.789-.18.034-.287.126-.442.207-.17.088-.139.166-.318.224-.081.026-.216.124-.215.224 .001.115.005.051.012.169-.02.012-.021-.004-.03-.024" fill="#fff"></path>
				<path d="m.495-41.042c.018.072.007.127-.026.19-.053.101-.112.063-.165.128-.05.063-.099.276-.079.362-.169.058-.01.227-.015.35-.002.05-.041.105-.045.161-.01.119.017.266.068.37 .097.198.268.413.435.544 .19.148.365.572.608.631 .177.042.384-.104.543-.143 .18-.043.397.01.571-.053 .222-.079.127-.337.288-.45 .104-.074.287-.01.406-.051 .2-.069.339-.263.376-.46 .016-.082.01-.145.039-.221 .039-.103.111-.16.09-.293-.01-.062-.052-.12-.064-.187-.022-.114.002-.224 0-.337-.003-.2.017-.379-.078-.55-.38-.688-1.236-.929-1.975-.789-.18.034-.287.126-.442.207-.17.088-.139.166-.318.224-.081.026-.216.124-.215.224 .001.115.005.051.012.169-.021.011-.021-.005-.03-.025" fill="#fff"></path>
			
			
				<path d="m69.439-33.39c.018.072.007.127-.026.19-.053.101-.112.063-.165.128-.05.063-.099.276-.079.362-.169.058-.01.227-.015.35-.002.05-.041.105-.045.161-.01.119.017.266.068.37 .097.198.268.413.435.544 .19.148.365.572.608.631 .177.042.384-.104.543-.143 .18-.043.397.01.571-.053 .222-.079.127-.337.288-.45 .104-.074.287-.01.406-.051 .2-.069.339-.263.376-.46 .016-.082.01-.145.039-.221 .039-.103.111-.16.09-.293-.01-.062-.052-.12-.064-.187-.022-.114.002-.224 0-.337-.003-.2.017-.379-.078-.55-.38-.688-1.236-.929-1.975-.789-.18.034-.287.126-.442.207-.17.088-.139.166-.318.224-.081.026-.216.124-.215.224 .001.115.005.051.012.169-.021.011-.021-.005-.03-.025" fill="#fff"></path>
				<path d="m61.778-33.39c.018.072.007.127-.026.19-.053.101-.112.063-.165.128-.05.063-.099.276-.079.362-.169.058-.009.227-.015.35-.002.05-.041.105-.045.161-.01.119.017.266.068.37 .097.198.268.413.435.544 .19.148.365.572.608.631 .177.042.384-.104.543-.143 .18-.043.397.01.571-.053 .222-.079.127-.337.288-.45 .104-.074.287-.01.406-.051 .2-.069.339-.263.376-.46 .016-.082.01-.145.039-.221 .039-.103.111-.16.09-.293-.01-.062-.052-.12-.064-.187-.022-.114.002-.224 0-.337-.003-.2.017-.379-.078-.55-.38-.688-1.236-.929-1.975-.789-.18.034-.287.126-.442.207-.17.088-.139.166-.318.224-.081.026-.216.124-.215.224 .001.115.005.051.012.169-.021.011-.021-.005-.03-.025" fill="#fff"></path>
				<path d="m54.118-33.39c.018.072.007.127-.026.19-.053.101-.112.063-.165.128-.05.063-.099.276-.079.362-.169.058-.009.227-.015.35-.002.05-.041.105-.045.161-.01.119.017.266.068.37 .097.198.268.413.435.544 .19.148.365.572.608.631 .177.042.384-.104.543-.143 .18-.043.397.01.571-.053 .222-.079.127-.337.288-.45 .104-.074.287-.01.406-.051 .2-.069.339-.263.376-.46 .016-.082.01-.145.039-.221 .039-.103.111-.16.09-.293-.01-.062-.052-.12-.064-.187-.022-.114.002-.224 0-.337-.003-.2.017-.379-.078-.55-.38-.688-1.236-.929-1.975-.789-.18.034-.287.126-.442.207-.17.088-.139.166-.318.224-.081.026-.216.124-.215.224 .001.115.005.051.012.169-.021.011-.021-.005-.03-.025" fill="#fff"></path>
				<path d="m46.458-33.39c.018.072.007.127-.026.19-.053.101-.112.063-.165.128-.05.063-.099.276-.079.362-.169.058-.009.227-.015.35-.002.05-.041.105-.045.161-.01.119.017.266.068.37 .097.198.268.413.435.544 .19.148.365.572.608.631 .177.042.384-.104.543-.143 .18-.043.397.01.571-.053 .222-.079.127-.337.288-.45 .104-.074.287-.01.406-.051 .2-.069.339-.263.376-.46 .016-.082.01-.145.039-.221 .039-.103.111-.16.09-.293-.01-.062-.052-.12-.064-.187-.022-.114.002-.224 0-.337-.003-.2.017-.379-.078-.55-.38-.688-1.236-.929-1.975-.789-.18.034-.287.126-.442.207-.17.088-.139.166-.318.224-.081.026-.216.124-.215.224 .001.115.005.051.012.169-.021.011-.021-.005-.03-.025" fill="#fff"></path>
				<path d="m38.797-33.39c.018.072.007.127-.026.19-.053.101-.112.063-.165.128-.05.063-.099.276-.079.362-.169.058-.009.227-.015.35-.002.05-.041.105-.045.161-.01.119.017.266.068.37 .097.198.268.413.435.544 .19.148.365.572.608.631 .177.042.384-.104.543-.143 .18-.043.397.01.571-.053 .222-.079.127-.337.288-.45 .104-.074.287-.01.406-.051 .2-.069.339-.263.376-.46 .016-.082.01-.145.039-.221 .039-.103.111-.16.09-.293-.01-.062-.052-.12-.064-.187-.022-.114.002-.224 0-.337-.003-.2.017-.379-.078-.55-.38-.688-1.236-.929-1.975-.789-.18.034-.287.126-.442.207-.17.088-.139.166-.318.224-.081.026-.216.124-.215.224 .001.115.005.051.012.169-.021.011-.021-.005-.03-.025" fill="#fff"></path>
				<path d="m31.137-33.39c.018.072.007.127-.026.19-.053.101-.112.063-.165.128-.05.063-.099.276-.079.362-.169.058-.009.227-.015.35-.002.05-.041.105-.045.161-.01.119.017.266.068.37 .097.198.268.413.435.544 .19.148.365.572.608.631 .177.042.384-.104.543-.143 .18-.043.397.01.571-.053 .222-.079.127-.337.288-.45 .104-.074.287-.01.406-.051 .2-.069.339-.263.376-.46 .016-.082.01-.145.039-.221 .039-.103.111-.16.09-.293-.01-.062-.052-.12-.064-.187-.022-.114.002-.224 0-.337-.003-.2.017-.379-.078-.55-.38-.688-1.236-.929-1.975-.789-.18.034-.287.126-.442.207-.17.088-.139.166-.318.224-.081.026-.216.124-.215.224 .001.115.005.051.012.169-.021.011-.021-.005-.03-.025" fill="#fff"></path>
				<path d="m23.477-33.39c.018.072.007.127-.026.19-.053.101-.112.063-.165.128-.05.063-.099.276-.079.362-.169.058-.009.227-.015.35-.002.05-.041.105-.045.161-.01.119.017.266.068.37 .097.198.268.413.435.544 .19.148.365.572.608.631 .177.042.384-.104.543-.143 .18-.043.397.01.571-.053 .222-.079.127-.337.288-.45 .104-.074.287-.01.406-.051 .2-.069.339-.263.376-.46 .016-.082.01-.145.039-.221 .039-.103.111-.16.09-.293-.01-.062-.052-.12-.064-.187-.022-.114.002-.224 0-.337-.003-.2.017-.379-.078-.55-.38-.688-1.236-.929-1.975-.789-.18.034-.287.126-.442.207-.17.088-.139.166-.318.224-.081.026-.216.124-.215.224 .001.115.005.051.012.169-.021.011-.021-.005-.03-.025" fill="#fff"></path>
				<path d="m15.816-33.39c.018.072.007.127-.026.19-.053.101-.112.063-.165.128-.05.063-.099.276-.079.362-.169.058-.009.227-.015.35-.002.05-.041.105-.045.161-.01.119.017.266.068.37 .097.198.268.413.435.544 .19.148.365.572.608.631 .177.042.384-.104.543-.143 .18-.043.397.01.571-.053 .222-.079.127-.337.288-.45 .104-.074.287-.01.406-.051 .2-.069.339-.263.376-.46 .016-.082.01-.145.039-.221 .039-.103.111-.16.09-.293-.01-.062-.052-.12-.064-.187-.022-.114.002-.224 0-.337-.003-.2.017-.379-.078-.55-.38-.688-1.236-.929-1.975-.789-.18.034-.287.126-.442.207-.17.088-.139.166-.318.224-.081.026-.216.124-.215.224 .001.115.005.051.012.169-.021.011-.021-.005-.03-.025" fill="#fff"></path>
				<path d="m8.156-33.39c.018.072.007.127-.026.19-.053.101-.112.063-.165.128-.05.063-.099.276-.079.362-.169.058-.009.227-.015.35-.002.05-.041.105-.045.161-.01.119.017.266.068.37 .097.198.268.413.435.544 .19.148.365.572.608.631 .177.042.384-.104.543-.143 .18-.043.397.01.571-.053 .222-.079.127-.337.288-.45 .104-.074.287-.01.406-.051 .2-.069.339-.263.376-.46 .016-.082.01-.145.039-.221 .039-.103.111-.16.09-.293-.01-.062-.052-.12-.064-.187-.022-.114.002-.224 0-.337-.003-.2.017-.379-.078-.55-.38-.688-1.236-.929-1.975-.789-.18.034-.287.126-.442.207-.17.088-.139.166-.318.224-.081.026-.216.124-.215.224 .001.115.005.051.012.169-.021.011-.021-.005-.03-.025" fill="#fff"></path>
				<path d="m.495-33.39c.018.072.007.127-.026.19-.053.101-.112.063-.165.128-.05.063-.099.276-.079.362-.169.058-.01.227-.015.35-.002.05-.041.105-.045.161-.01.119.017.266.068.37 .097.198.268.413.435.544 .19.148.365.572.608.631 .177.042.384-.104.543-.143 .18-.043.397.01.571-.053 .222-.079.127-.337.288-.45 .104-.074.287-.01.406-.051 .2-.069.339-.263.376-.46 .016-.082.01-.145.039-.221 .039-.103.111-.16.09-.293-.01-.062-.052-.12-.064-.187-.022-.114.002-.224 0-.337-.003-.2.017-.379-.078-.55-.38-.688-1.236-.929-1.975-.789-.18.034-.287.126-.442.207-.17.088-.139.166-.318.224-.081.026-.216.124-.215.224 .003.117.006.053.013.171-.021.011-.021-.005-.03-.025" fill="#fff"></path>
			
			
				<path d="m69.439-25.736c.018.072.007.127-.026.19-.053.101-.112.063-.165.128-.05.063-.099.276-.079.362-.169.058-.01.227-.015.35-.002.05-.041.105-.045.161-.01.119.017.266.068.37 .097.198.268.413.435.544 .19.148.365.572.608.631 .177.042.384-.104.543-.143 .18-.043.397.01.571-.053 .222-.079.127-.337.288-.45 .104-.074.287-.01.406-.051 .2-.069.339-.263.376-.46 .016-.082.01-.145.039-.221 .039-.103.111-.16.09-.293-.01-.062-.052-.12-.064-.187-.022-.114.002-.224 0-.337-.003-.2.017-.379-.078-.55-.38-.688-1.236-.929-1.975-.789-.18.034-.287.126-.442.207-.17.088-.139.166-.318.224-.081.026-.216.124-.215.224 .001.115.005.051.012.169-.021.011-.021-.005-.03-.025" fill="#fff"></path>
				<path d="m61.778-25.736c.018.072.007.127-.026.19-.053.101-.112.063-.165.128-.05.063-.099.276-.079.362-.169.058-.009.227-.015.35-.002.05-.041.105-.045.161-.01.119.017.266.068.37 .097.198.268.413.435.544 .19.148.365.572.608.631 .177.042.384-.104.543-.143 .18-.043.397.01.571-.053 .222-.079.127-.337.288-.45 .104-.074.287-.01.406-.051 .2-.069.339-.263.376-.46 .016-.082.01-.145.039-.221 .039-.103.111-.16.09-.293-.01-.062-.052-.12-.064-.187-.022-.114.002-.224 0-.337-.003-.2.017-.379-.078-.55-.38-.688-1.236-.929-1.975-.789-.18.034-.287.126-.442.207-.17.088-.139.166-.318.224-.081.026-.216.124-.215.224 .001.115.005.051.012.169-.021.011-.021-.005-.03-.025" fill="#fff"></path>
				<path d="m54.118-25.736c.018.072.007.127-.026.19-.053.101-.112.063-.165.128-.05.063-.099.276-.079.362-.169.058-.009.227-.015.35-.002.05-.041.105-.045.161-.01.119.017.266.068.37 .097.198.268.413.435.544 .19.148.365.572.608.631 .177.042.384-.104.543-.143 .18-.043.397.01.571-.053 .222-.079.127-.337.288-.45 .104-.074.287-.01.406-.051 .2-.069.339-.263.376-.46 .016-.082.01-.145.039-.221 .039-.103.111-.16.09-.293-.01-.062-.052-.12-.064-.187-.022-.114.002-.224 0-.337-.003-.2.017-.379-.078-.55-.38-.688-1.236-.929-1.975-.789-.18.034-.287.126-.442.207-.17.088-.139.166-.318.224-.081.026-.216.124-.215.224 .001.115.005.051.012.169-.021.011-.021-.005-.03-.025" fill="#fff"></path>
				<path d="m46.458-25.736c.018.072.007.127-.026.19-.053.101-.112.063-.165.128-.05.063-.099.276-.079.362-.169.058-.009.227-.015.35-.002.05-.041.105-.045.161-.01.119.017.266.068.37 .097.198.268.413.435.544 .19.148.365.572.608.631 .177.042.384-.104.543-.143 .18-.043.397.01.571-.053 .222-.079.127-.337.288-.45 .104-.074.287-.01.406-.051 .2-.069.339-.263.376-.46 .016-.082.01-.145.039-.221 .039-.103.111-.16.09-.293-.01-.062-.052-.12-.064-.187-.022-.114.002-.224 0-.337-.003-.2.017-.379-.078-.55-.38-.688-1.236-.929-1.975-.789-.18.034-.287.126-.442.207-.17.088-.139.166-.318.224-.081.026-.216.124-.215.224 .001.115.005.051.012.169-.021.011-.021-.005-.03-.025" fill="#fff"></path>
				<path d="m38.797-25.736c.018.072.007.127-.026.19-.053.101-.112.063-.165.128-.05.063-.099.276-.079.362-.169.058-.009.227-.015.35-.002.05-.041.105-.045.161-.01.119.017.266.068.37 .097.198.268.413.435.544 .19.148.365.572.608.631 .177.042.384-.104.543-.143 .18-.043.397.01.571-.053 .222-.079.127-.337.288-.45 .104-.074.287-.01.406-.051 .2-.069.339-.263.376-.46 .016-.082.01-.145.039-.221 .039-.103.111-.16.09-.293-.01-.062-.052-.12-.064-.187-.022-.114.002-.224 0-.337-.003-.2.017-.379-.078-.55-.38-.688-1.236-.929-1.975-.789-.18.034-.287.126-.442.207-.17.088-.139.166-.318.224-.081.026-.216.124-.215.224 .001.115.005.051.012.169-.021.011-.021-.005-.03-.025" fill="#fff"></path>
				<path d="m31.137-25.736c.018.072.007.127-.026.19-.053.101-.112.063-.165.128-.05.063-.099.276-.079.362-.169.058-.009.227-.015.35-.002.05-.041.105-.045.161-.01.119.017.266.068.37 .097.198.268.413.435.544 .19.148.365.572.608.631 .177.042.384-.104.543-.143 .18-.043.397.01.571-.053 .222-.079.127-.337.288-.45 .104-.074.287-.01.406-.051 .2-.069.339-.263.376-.46 .016-.082.01-.145.039-.221 .039-.103.111-.16.09-.293-.01-.062-.052-.12-.064-.187-.022-.114.002-.224 0-.337-.003-.2.017-.379-.078-.55-.38-.688-1.236-.929-1.975-.789-.18.034-.287.126-.442.207-.17.088-.139.166-.318.224-.081.026-.216.124-.215.224 .001.115.005.051.012.169-.021.011-.021-.005-.03-.025" fill="#fff"></path>
				<path d="m23.477-25.736c.018.072.007.127-.026.19-.053.101-.112.063-.165.128-.05.063-.099.276-.079.362-.169.058-.009.227-.015.35-.002.05-.041.105-.045.161-.01.119.017.266.068.37 .097.198.268.413.435.544 .19.148.365.572.608.631 .177.042.384-.104.543-.143 .18-.043.397.01.571-.053 .222-.079.127-.337.288-.45 .104-.074.287-.01.406-.051 .2-.069.339-.263.376-.46 .016-.082.01-.145.039-.221 .039-.103.111-.16.09-.293-.01-.062-.052-.12-.064-.187-.022-.114.002-.224 0-.337-.003-.2.017-.379-.078-.55-.38-.688-1.236-.929-1.975-.789-.18.034-.287.126-.442.207-.17.088-.139.166-.318.224-.081.026-.216.124-.215.224 .001.115.005.051.012.169-.021.011-.021-.005-.03-.025" fill="#fff"></path>
				<path d="m15.816-25.736c.018.072.007.127-.026.19-.053.101-.112.063-.165.128-.05.063-.099.276-.079.362-.169.058-.009.227-.015.35-.002.05-.041.105-.045.161-.01.119.017.266.068.37 .097.198.268.413.435.544 .19.148.365.572.608.631 .177.042.384-.104.543-.143 .18-.043.397.01.571-.053 .222-.079.127-.337.288-.45 .104-.074.287-.01.406-.051 .2-.069.339-.263.376-.46 .016-.082.01-.145.039-.221 .039-.103.111-.16.09-.293-.01-.062-.052-.12-.064-.187-.022-.114.002-.224 0-.337-.003-.2.017-.379-.078-.55-.38-.688-1.236-.929-1.975-.789-.18.034-.287.126-.442.207-.17.088-.139.166-.318.224-.081.026-.216.124-.215.224 .001.115.005.051.012.169-.021.011-.021-.005-.03-.025" fill="#fff"></path>
				<path d="m8.156-25.736c.018.072.007.127-.026.19-.053.101-.112.063-.165.128-.05.063-.099.276-.079.362-.169.058-.009.227-.015.35-.002.05-.041.105-.045.161-.01.119.017.266.068.37 .097.198.268.413.435.544 .19.148.365.572.608.631 .177.042.384-.104.543-.143 .18-.043.397.01.571-.053 .222-.079.127-.337.288-.45 .104-.074.287-.01.406-.051 .2-.069.339-.263.376-.46 .016-.082.01-.145.039-.221 .039-.103.111-.16.09-.293-.01-.062-.052-.12-.064-.187-.022-.114.002-.224 0-.337-.003-.2.017-.379-.078-.55-.38-.688-1.236-.929-1.975-.789-.18.034-.287.126-.442.207-.17.088-.139.166-.318.224-.081.026-.216.124-.215.224 .001.115.005.051.012.169-.021.011-.021-.005-.03-.025" fill="#fff"></path>
				<path d="m.495-25.736c.018.072.007.127-.026.19-.053.101-.112.063-.165.128-.05.063-.099.276-.079.362-.169.058-.01.227-.015.35-.002.05-.041.105-.045.161-.01.119.017.266.068.37 .097.198.268.413.435.544 .19.148.365.572.608.631 .177.042.384-.104.543-.143 .18-.043.397.01.571-.053 .222-.079.127-.337.288-.45 .104-.074.287-.01.406-.051 .2-.069.339-.263.376-.46 .016-.082.01-.145.039-.221 .039-.103.111-.16.09-.293-.01-.062-.052-.12-.064-.187-.022-.114.002-.224 0-.337-.003-.2.017-.379-.078-.55-.38-.688-1.236-.929-1.975-.789-.18.034-.287.126-.442.207-.17.088-.139.166-.318.224-.081.026-.216.124-.215.224 .001.115.005.051.012.169-.021.011-.021-.005-.03-.025" fill="#fff"></path>
			
			
				<path d="m69.439-18.084c.018.072.007.127-.026.19-.053.101-.112.063-.165.128-.05.063-.099.276-.079.362-.169.058-.01.227-.015.35-.002.05-.041.105-.045.161-.01.119.017.266.068.37 .097.198.268.413.435.544 .19.148.365.572.608.631 .177.042.384-.104.543-.143 .18-.043.397.01.571-.053 .222-.079.127-.337.288-.45 .104-.074.287-.01.406-.051 .2-.069.339-.263.376-.46 .016-.082.01-.145.039-.221 .039-.103.111-.16.09-.293-.01-.062-.052-.12-.064-.187-.022-.114.002-.224 0-.337-.003-.2.017-.379-.078-.55-.38-.688-1.236-.929-1.975-.789-.18.034-.287.126-.442.207-.17.088-.139.166-.318.224-.081.026-.216.124-.215.224 .001.115.005.051.012.169-.021.011-.021-.005-.03-.025" fill="#fff"></path>
				<path d="m61.778-18.084c.018.072.007.127-.026.19-.053.101-.112.063-.165.128-.05.063-.099.276-.079.362-.169.058-.009.227-.015.35-.002.05-.041.105-.045.161-.01.119.017.266.068.37 .097.198.268.413.435.544 .19.148.365.572.608.631 .177.042.384-.104.543-.143 .18-.043.397.01.571-.053 .222-.079.127-.337.288-.45 .104-.074.287-.01.406-.051 .2-.069.339-.263.376-.46 .016-.082.01-.145.039-.221 .039-.103.111-.16.09-.293-.01-.062-.052-.12-.064-.187-.022-.114.002-.224 0-.337-.003-.2.017-.379-.078-.55-.38-.688-1.236-.929-1.975-.789-.18.034-.287.126-.442.207-.17.088-.139.166-.318.224-.081.026-.216.124-.215.224 .001.115.005.051.012.169-.021.011-.021-.005-.03-.025" fill="#fff"></path>
				<path d="m54.118-18.084c.018.072.007.127-.026.19-.053.101-.112.063-.165.128-.05.063-.099.276-.079.362-.169.058-.009.227-.015.35-.002.05-.041.105-.045.161-.01.119.017.266.068.37 .097.198.268.413.435.544 .19.148.365.572.608.631 .177.042.384-.104.543-.143 .18-.043.397.01.571-.053 .222-.079.127-.337.288-.45 .104-.074.287-.01.406-.051 .2-.069.339-.263.376-.46 .016-.082.01-.145.039-.221 .039-.103.111-.16.09-.293-.01-.062-.052-.12-.064-.187-.022-.114.002-.224 0-.337-.003-.2.017-.379-.078-.55-.38-.688-1.236-.929-1.975-.789-.18.034-.287.126-.442.207-.17.088-.139.166-.318.224-.081.026-.216.124-.215.224 .001.115.005.051.012.169-.021.011-.021-.005-.03-.025" fill="#fff"></path>
				<path d="m46.458-18.084c.018.072.007.127-.026.19-.053.101-.112.063-.165.128-.05.063-.099.276-.079.362-.169.058-.009.227-.015.35-.002.05-.041.105-.045.161-.01.119.017.266.068.37 .097.198.268.413.435.544 .19.148.365.572.608.631 .177.042.384-.104.543-.143 .18-.043.397.01.571-.053 .222-.079.127-.337.288-.45 .104-.074.287-.01.406-.051 .2-.069.339-.263.376-.46 .016-.082.01-.145.039-.221 .039-.103.111-.16.09-.293-.01-.062-.052-.12-.064-.187-.022-.114.002-.224 0-.337-.003-.2.017-.379-.078-.55-.38-.688-1.236-.929-1.975-.789-.18.034-.287.126-.442.207-.17.088-.139.166-.318.224-.081.026-.216.124-.215.224 .001.115.005.051.012.169-.021.011-.021-.005-.03-.025" fill="#fff"></path>
				<path d="m38.797-18.084c.018.072.007.127-.026.19-.053.101-.112.063-.165.128-.05.063-.099.276-.079.362-.169.058-.009.227-.015.35-.002.05-.041.105-.045.161-.01.119.017.266.068.37 .097.198.268.413.435.544 .19.148.365.572.608.631 .177.042.384-.104.543-.143 .18-.043.397.01.571-.053 .222-.079.127-.337.288-.45 .104-.074.287-.01.406-.051 .2-.069.339-.263.376-.46 .016-.082.01-.145.039-.221 .039-.103.111-.16.09-.293-.01-.062-.052-.12-.064-.187-.022-.114.002-.224 0-.337-.003-.2.017-.379-.078-.55-.38-.688-1.236-.929-1.975-.789-.18.034-.287.126-.442.207-.17.088-.139.166-.318.224-.081.026-.216.124-.215.224 .001.115.005.051.012.169-.021.011-.021-.005-.03-.025" fill="#fff"></path>
				<path d="m31.137-18.084c.018.072.007.127-.026.19-.053.101-.112.063-.165.128-.05.063-.099.276-.079.362-.169.058-.009.227-.015.35-.002.05-.041.105-.045.161-.01.119.017.266.068.37 .097.198.268.413.435.544 .19.148.365.572.608.631 .177.042.384-.104.543-.143 .18-.043.397.01.571-.053 .222-.079.127-.337.288-.45 .104-.074.287-.01.406-.051 .2-.069.339-.263.376-.46 .016-.082.01-.145.039-.221 .039-.103.111-.16.09-.293-.01-.062-.052-.12-.064-.187-.022-.114.002-.224 0-.337-.003-.2.017-.379-.078-.55-.38-.688-1.236-.929-1.975-.789-.18.034-.287.126-.442.207-.17.088-.139.166-.318.224-.081.026-.216.124-.215.224 .001.115.005.051.012.169-.021.011-.021-.005-.03-.025" fill="#fff"></path>
				<path d="m23.477-18.084c.018.072.007.127-.026.19-.053.101-.112.063-.165.128-.05.063-.099.276-.079.362-.169.058-.009.227-.015.35-.002.05-.041.105-.045.161-.01.119.017.266.068.37 .097.198.268.413.435.544 .19.148.365.572.608.631 .177.042.384-.104.543-.143 .18-.043.397.01.571-.053 .222-.079.127-.337.288-.45 .104-.074.287-.01.406-.051 .2-.069.339-.263.376-.46 .016-.082.01-.145.039-.221 .039-.103.111-.16.09-.293-.01-.062-.052-.12-.064-.187-.022-.114.002-.224 0-.337-.003-.2.017-.379-.078-.55-.38-.688-1.236-.929-1.975-.789-.18.034-.287.126-.442.207-.17.088-.139.166-.318.224-.081.026-.216.124-.215.224 .001.115.005.051.012.169-.021.011-.021-.005-.03-.025" fill="#fff"></path>
				<path d="m15.816-18.084c.018.072.007.127-.026.19-.053.101-.112.063-.165.128-.05.063-.099.276-.079.362-.169.058-.009.227-.015.35-.002.05-.041.105-.045.161-.01.119.017.266.068.37 .097.198.268.413.435.544 .19.148.365.572.608.631 .177.042.384-.104.543-.143 .18-.043.397.01.571-.053 .222-.079.127-.337.288-.45 .104-.074.287-.01.406-.051 .2-.069.339-.263.376-.46 .016-.082.01-.145.039-.221 .039-.103.111-.16.09-.293-.01-.062-.052-.12-.064-.187-.022-.114.002-.224 0-.337-.003-.2.017-.379-.078-.55-.38-.688-1.236-.929-1.975-.789-.18.034-.287.126-.442.207-.17.088-.139.166-.318.224-.081.026-.216.124-.215.224 .001.115.005.051.012.169-.021.011-.021-.005-.03-.025" fill="#fff"></path>
				<path d="m8.156-18.084c.018.072.007.127-.026.19-.053.101-.112.063-.165.128-.05.063-.099.276-.079.362-.169.058-.009.227-.015.35-.002.05-.041.105-.045.161-.01.119.017.266.068.37 .097.198.268.413.435.544 .19.148.365.572.608.631 .177.042.384-.104.543-.143 .18-.043.397.01.571-.053 .222-.079.127-.337.288-.45 .104-.074.287-.01.406-.051 .2-.069.339-.263.376-.46 .016-.082.01-.145.039-.221 .039-.103.111-.16.09-.293-.01-.062-.052-.12-.064-.187-.022-.114.002-.224 0-.337-.003-.2.017-.379-.078-.55-.38-.688-1.236-.929-1.975-.789-.18.034-.287.126-.442.207-.17.088-.139.166-.318.224-.081.026-.216.124-.215.224 .001.115.005.051.012.169-.021.011-.021-.005-.03-.025" fill="#fff"></path>
				<path d="m.495-18.084c.018.072.007.127-.026.19-.053.101-.112.063-.165.128-.05.063-.099.276-.079.362-.169.058-.01.227-.015.35-.002.05-.041.105-.045.161-.01.119.017.266.068.37 .097.198.268.413.435.544 .19.148.365.572.608.631 .177.042.384-.104.543-.143 .18-.043.397.01.571-.053 .222-.079.127-.337.288-.45 .104-.074.287-.01.406-.051 .2-.069.339-.263.376-.46 .016-.082.01-.145.039-.221 .039-.103.111-.16.09-.293-.01-.062-.052-.12-.064-.187-.022-.114.002-.224 0-.337-.003-.2.017-.379-.078-.55-.38-.688-1.236-.929-1.975-.789-.18.034-.287.126-.442.207-.17.088-.139.166-.318.224-.081.026-.216.124-.215.224 .003.117.006.052.013.17-.021.011-.021-.005-.03-.025" fill="#fff"></path>
			
			
				<path d="m69.439-10.431c.018.072.007.127-.026.19-.053.101-.112.063-.165.128-.05.063-.099.276-.079.362-.169.059-.01.228-.015.351-.002.05-.041.105-.045.161-.01.119.017.266.068.37 .097.198.268.413.435.544 .19.148.365.572.608.631 .177.042.384-.104.543-.143 .18-.043.397.01.571-.053 .222-.079.127-.337.288-.45 .104-.074.287-.01.406-.051 .2-.069.339-.263.376-.46 .016-.082.01-.145.039-.221 .039-.103.111-.16.09-.293-.01-.062-.052-.12-.064-.187-.022-.114.002-.224 0-.337-.003-.2.017-.379-.078-.55-.38-.688-1.236-.929-1.975-.789-.18.034-.287.126-.442.207-.17.088-.139.166-.318.224-.081.026-.216.124-.215.224 .001.115.005.051.012.169-.021.011-.021-.005-.03-.025" fill="#fff"></path>
				<path d="m61.778-10.431c.018.072.007.127-.026.19-.053.101-.112.063-.165.128-.05.063-.099.276-.079.362-.169.058-.009.227-.015.35-.002.05-.041.105-.045.161-.01.119.017.266.068.37 .097.198.268.413.435.544 .19.148.365.572.608.631 .177.042.384-.104.543-.143 .18-.043.397.01.571-.053 .222-.079.127-.337.288-.45 .104-.074.287-.01.406-.051 .2-.069.339-.263.376-.46 .016-.082.01-.145.039-.221 .039-.103.111-.16.09-.293-.01-.062-.052-.12-.064-.187-.022-.114.002-.224 0-.337-.003-.2.017-.379-.078-.55-.38-.688-1.236-.929-1.975-.789-.18.034-.287.126-.442.207-.17.088-.139.166-.318.224-.081.026-.216.124-.215.224 .001.115.005.051.012.169-.021.011-.021-.005-.03-.025" fill="#fff"></path>
				<path d="m54.118-10.431c.018.072.007.127-.026.19-.053.101-.112.063-.165.128-.05.063-.099.276-.079.362-.169.058-.009.227-.015.35-.002.05-.041.105-.045.161-.01.119.017.266.068.37 .097.198.268.413.435.544 .19.148.365.572.608.631 .177.042.384-.104.543-.143 .18-.043.397.01.571-.053 .222-.079.127-.337.288-.45 .104-.074.287-.01.406-.051 .2-.069.339-.263.376-.46 .016-.082.01-.145.039-.221 .039-.103.111-.16.09-.293-.01-.062-.052-.12-.064-.187-.022-.114.002-.224 0-.337-.003-.2.017-.379-.078-.55-.38-.688-1.236-.929-1.975-.789-.18.034-.287.126-.442.207-.17.088-.139.166-.318.224-.081.026-.216.124-.215.224 .001.115.005.051.012.169-.021.011-.021-.005-.03-.025" fill="#fff"></path>
				<path d="m46.458-10.431c.018.072.007.127-.026.19-.053.101-.112.063-.165.128-.05.063-.099.276-.079.362-.169.058-.009.227-.015.35-.002.05-.041.105-.045.161-.01.119.017.266.068.37 .097.198.268.413.435.544 .19.148.365.572.608.631 .177.042.384-.104.543-.143 .18-.043.397.01.571-.053 .222-.079.127-.337.288-.45 .104-.074.287-.01.406-.051 .2-.069.339-.263.376-.46 .016-.082.01-.145.039-.221 .039-.103.111-.16.09-.293-.01-.062-.052-.12-.064-.187-.022-.114.002-.224 0-.337-.003-.2.017-.379-.078-.55-.38-.688-1.236-.929-1.975-.789-.18.034-.287.126-.442.207-.17.088-.139.166-.318.224-.081.026-.216.124-.215.224 .001.115.005.051.012.169-.021.011-.021-.005-.03-.025" fill="#fff"></path>
				<path d="m38.797-10.431c.018.072.007.127-.026.19-.053.101-.112.063-.165.128-.05.063-.099.276-.079.362-.169.058-.009.227-.015.35-.002.05-.041.105-.045.161-.01.119.017.266.068.37 .097.198.268.413.435.544 .19.148.365.572.608.631 .177.042.384-.104.543-.143 .18-.043.397.01.571-.053 .222-.079.127-.337.288-.45 .104-.074.287-.01.406-.051 .2-.069.339-.263.376-.46 .016-.082.01-.145.039-.221 .039-.103.111-.16.09-.293-.01-.062-.052-.12-.064-.187-.022-.114.002-.224 0-.337-.003-.2.017-.379-.078-.55-.38-.688-1.236-.929-1.975-.789-.18.034-.287.126-.442.207-.17.088-.139.166-.318.224-.081.026-.216.124-.215.224 .001.115.005.051.012.169-.021.011-.021-.005-.03-.025" fill="#fff"></path>
				<path d="m31.137-10.431c.018.072.007.127-.026.19-.053.101-.112.063-.165.128-.05.063-.099.276-.079.362-.169.058-.009.227-.015.35-.002.05-.041.105-.045.161-.01.119.017.266.068.37 .097.198.268.413.435.544 .19.148.365.572.608.631 .177.042.384-.104.543-.143 .18-.043.397.01.571-.053 .222-.079.127-.337.288-.45 .104-.074.287-.01.406-.051 .2-.069.339-.263.376-.46 .016-.082.01-.145.039-.221 .039-.103.111-.16.09-.293-.01-.062-.052-.12-.064-.187-.022-.114.002-.224 0-.337-.003-.2.017-.379-.078-.55-.38-.688-1.236-.929-1.975-.789-.18.034-.287.126-.442.207-.17.088-.139.166-.318.224-.081.026-.216.124-.215.224 .001.115.005.051.012.169-.021.011-.021-.005-.03-.025" fill="#fff"></path>
				<path d="m23.477-10.431c.018.072.007.127-.026.19-.053.101-.112.063-.165.128-.05.063-.099.276-.079.362-.169.058-.009.227-.015.35-.002.05-.041.105-.045.161-.01.119.017.266.068.37 .097.198.268.413.435.544 .19.148.365.572.608.631 .177.042.384-.104.543-.143 .18-.043.397.01.571-.053 .222-.079.127-.337.288-.45 .104-.074.287-.01.406-.051 .2-.069.339-.263.376-.46 .016-.082.01-.145.039-.221 .039-.103.111-.16.09-.293-.01-.062-.052-.12-.064-.187-.022-.114.002-.224 0-.337-.003-.2.017-.379-.078-.55-.38-.688-1.236-.929-1.975-.789-.18.034-.287.126-.442.207-.17.088-.139.166-.318.224-.081.026-.216.124-.215.224 .001.115.005.051.012.169-.021.011-.021-.005-.03-.025" fill="#fff"></path>
				<path d="m15.816-10.431c.018.072.007.127-.026.19-.053.101-.112.063-.165.128-.05.063-.099.276-.079.362-.169.058-.009.227-.015.35-.002.05-.041.105-.045.161-.01.119.017.266.068.37 .097.198.268.413.435.544 .19.148.365.572.608.631 .177.042.384-.104.543-.143 .18-.043.397.01.571-.053 .222-.078.128-.336.289-.449 .104-.074.287-.01.406-.051 .2-.069.339-.263.376-.46 .016-.082.01-.145.039-.221 .039-.103.111-.16.09-.293-.01-.062-.052-.12-.064-.187-.022-.114.002-.224 0-.337-.003-.2.017-.379-.078-.55-.38-.688-1.236-.929-1.975-.789-.18.034-.287.126-.442.207-.17.088-.139.166-.318.224-.081.026-.216.124-.215.224 .001.115.005.051.012.169-.021.011-.021-.005-.03-.025" fill="#fff"></path>
				<path d="m8.156-10.431c.018.072.007.127-.026.19-.053.101-.112.063-.165.128-.05.063-.099.277-.079.363-.169.058-.01.227-.015.35-.003.049-.041.105-.045.161-.01.119.017.266.068.37 .097.198.268.413.435.544 .19.148.365.572.608.631 .177.042.384-.105.543-.143 .18-.043.397.01.571-.053 .222-.079.127-.337.288-.45 .104-.074.287-.01.406-.051 .2-.069.339-.263.376-.46 .016-.082.01-.145.039-.221 .039-.103.111-.16.09-.293-.01-.062-.052-.12-.064-.187-.022-.114.002-.224 0-.337-.003-.2.017-.379-.078-.55-.38-.688-1.236-.929-1.975-.789-.18.034-.287.126-.442.207-.17.088-.139.166-.318.224-.081.026-.216.124-.215.224 .001.115.005.051.012.169-.021.011-.021-.005-.03-.025" fill="#fff"></path>
				<path d="m.495-10.431c.018.072.007.127-.026.19-.053.101-.112.063-.165.128-.05.063-.099.277-.079.363-.169.058-.01.227-.015.35-.002.05-.041.105-.045.161-.01.119.017.266.068.37 .097.198.268.413.435.544 .19.148.365.572.608.631 .178.042.384-.105.543-.143 .181-.043.398.01.572-.053 .222-.079.127-.337.288-.45 .104-.074.287-.01.406-.051 .2-.069.339-.263.376-.46 .016-.082.01-.144.039-.22 .039-.103.111-.16.09-.293-.01-.062-.052-.12-.064-.187-.022-.114.002-.224 0-.337-.003-.2.017-.379-.078-.55-.38-.688-1.236-.929-1.975-.789-.18.034-.287.126-.442.207-.17.088-.139.166-.318.224-.081.026-.216.124-.215.224 .001.115.005.051.012.169-.021.011-.021-.005-.03-.025" fill="#fff"></path>
			
		
		
			<path d="m69.439-2.778c.018.072.008.127-.026.19-.052.101-.113.063-.165.128-.051.063-.099.276-.079.362-.169.058-.01.227-.015.35-.002.05-.041.105-.045.161-.01.119.017.266.068.37 .097.198.268.413.435.544 .19.148.365.572.608.631 .177.042.384-.104.543-.143 .18-.043.397.01.571-.053 .222-.079.127-.337.288-.45 .104-.074.287-.01.406-.051 .2-.07.339-.263.376-.46 .016-.082.01-.145.039-.221 .038-.103.111-.16.09-.293-.01-.062-.051-.12-.064-.187-.021-.114.002-.224 0-.337-.003-.2.017-.379-.078-.55-.38-.688-1.236-.929-1.975-.789-.18.034-.287.126-.442.207-.17.088-.139.166-.318.224-.081.026-.215.124-.215.224 .002.115.005.051.012.169-.021.011-.021-.005-.03-.025" fill="#fff"></path>
			<path d="m61.778-2.778c.018.072.007.127-.026.19-.052.101-.112.063-.165.128-.05.063-.099.276-.079.362-.169.058-.01.227-.015.35-.002.05-.041.105-.045.161-.01.119.017.266.068.37 .097.198.268.413.435.544 .19.148.365.572.608.631 .178.042.384-.104.544-.143 .18-.043.397.01.571-.053 .222-.079.127-.337.288-.45 .104-.074.287-.01.406-.051 .2-.069.339-.263.376-.46 .016-.082.01-.145.039-.221 .039-.103.111-.16.09-.293-.01-.062-.052-.12-.064-.187-.022-.114.002-.224 0-.337-.003-.2.017-.379-.078-.55-.38-.688-1.236-.929-1.975-.789-.18.034-.287.126-.442.207-.17.088-.139.166-.318.224-.081.028-.216.125-.215.225 .001.115.005.051.012.169-.021.011-.021-.005-.03-.025" fill="#fff"></path>
			<path d="m54.118-2.778c.018.072.007.127-.026.19-.052.101-.112.063-.165.128-.05.063-.099.276-.079.362-.169.058-.01.227-.015.35-.002.05-.041.105-.045.161-.01.119.017.266.068.37 .097.198.268.413.435.544 .19.148.365.572.608.631 .178.042.384-.104.543-.143 .18-.043.397.01.571-.053 .222-.079.127-.337.288-.45 .104-.074.287-.01.406-.051 .2-.069.339-.263.376-.46 .016-.082.01-.145.039-.221 .039-.103.111-.16.09-.293-.01-.062-.052-.12-.064-.187-.022-.114.002-.224 0-.337-.003-.2.017-.379-.078-.55-.38-.688-1.236-.929-1.975-.789-.18.034-.287.126-.442.207-.17.088-.139.166-.318.224-.08.028-.215.125-.214.225 .001.115.005.051.012.169-.021.011-.021-.005-.03-.025" fill="#fff"></path>
			<path d="m46.458-2.778c.018.072.007.127-.026.19-.053.101-.112.063-.165.128-.05.063-.099.276-.079.362-.169.058-.01.227-.015.35-.002.05-.041.105-.045.161-.01.119.017.266.068.37 .097.198.268.413.435.544 .19.148.365.572.608.631 .177.042.384-.104.543-.143 .18-.043.397.01.571-.053 .222-.079.127-.337.288-.45 .104-.074.287-.01.406-.051 .2-.069.339-.263.376-.46 .016-.082.01-.145.039-.221 .039-.103.111-.16.09-.293-.01-.062-.052-.12-.064-.187-.022-.114.002-.224 0-.337-.003-.2.017-.379-.078-.55-.38-.688-1.236-.929-1.975-.789-.18.034-.287.126-.442.207-.17.088-.139.166-.318.224-.081.028-.216.125-.215.225 .001.115.005.051.012.169-.021.011-.021-.005-.03-.025" fill="#fff"></path>
			<path d="m38.797-2.778c.018.072.007.127-.026.19-.053.101-.112.063-.165.128-.05.063-.099.276-.079.362-.169.058-.01.227-.015.35-.002.05-.041.105-.045.161-.01.119.017.266.068.37 .097.198.268.413.435.544 .19.148.365.572.608.631 .178.042.384-.104.544-.143 .18-.043.397.01.571-.053 .222-.079.127-.337.288-.45 .104-.074.287-.01.406-.051 .2-.069.339-.263.376-.46 .016-.082.01-.145.039-.221 .039-.103.111-.16.09-.293-.01-.062-.052-.12-.064-.187-.022-.114.002-.224 0-.337-.003-.2.017-.379-.078-.55-.38-.688-1.236-.929-1.975-.789-.18.034-.287.126-.442.207-.17.088-.139.166-.318.224-.081.028-.216.125-.215.225 .001.115.005.051.012.169-.021.011-.021-.005-.03-.025" fill="#fff"></path>
			<path d="m31.137-2.778c.018.072.007.127-.026.19-.053.101-.112.063-.165.128-.05.063-.099.276-.079.362-.169.058-.01.227-.015.35-.002.05-.041.105-.045.161-.01.119.017.266.068.37 .097.198.268.413.435.544 .19.148.365.572.608.631 .177.042.384-.104.543-.143 .18-.043.397.01.571-.053 .222-.079.127-.337.288-.45 .104-.074.287-.01.406-.051 .2-.069.339-.263.376-.46 .016-.082.01-.145.039-.221 .039-.103.111-.16.09-.293-.01-.062-.052-.12-.064-.187-.022-.114.002-.224 0-.337-.003-.2.017-.379-.078-.55-.38-.688-1.236-.929-1.975-.789-.18.034-.287.126-.442.207-.17.088-.139.166-.318.224-.081.028-.215.125-.214.225 .001.115.005.051.012.169-.021.011-.021-.005-.03-.025" fill="#fff"></path>
			<path d="m23.477-2.778c.018.072.007.127-.026.19-.053.101-.112.063-.165.128-.05.063-.099.276-.079.362-.169.058-.01.227-.015.35-.002.05-.041.105-.045.161-.01.119.017.266.068.37 .097.198.268.413.435.544 .19.148.365.572.608.631 .177.042.384-.104.543-.143 .18-.043.397.01.571-.053 .222-.079.127-.337.288-.45 .104-.074.287-.01.406-.051 .2-.069.339-.263.376-.46 .016-.082.01-.145.039-.221 .039-.103.111-.16.09-.293-.01-.062-.052-.12-.064-.187-.022-.114.002-.224 0-.337-.003-.2.017-.379-.078-.55-.38-.688-1.236-.929-1.975-.789-.18.034-.287.126-.442.207-.17.088-.139.166-.318.224-.081.026-.216.124-.215.224 .001.115.005.051.012.169-.021.011-.021-.005-.03-.025" fill="#fff"></path>
			<path d="m15.816-2.778c.018.072.007.127-.026.19-.053.101-.112.063-.165.128-.05.063-.099.276-.079.362-.169.058-.01.227-.015.35-.002.05-.041.105-.045.161-.01.119.017.266.068.37 .097.198.268.413.435.544 .19.148.365.572.608.631 .177.042.384-.104.543-.143 .18-.043.397.01.571-.053 .222-.079.127-.337.288-.45 .104-.074.287-.01.406-.051 .2-.069.339-.263.376-.46 .016-.082.01-.145.039-.221 .039-.103.111-.16.09-.293-.01-.062-.052-.12-.064-.187-.022-.114.002-.224 0-.337-.003-.2.017-.379-.078-.55-.38-.688-1.236-.929-1.975-.789-.18.034-.287.126-.442.207-.17.088-.139.166-.318.224-.081.026-.216.124-.215.224 .001.115.005.051.012.169-.02.012-.021-.004-.03-.024" fill="#fff"></path>
			<path d="m8.156-2.778c.018.072.007.127-.026.19-.053.101-.112.063-.165.128-.05.063-.099.276-.079.362-.169.058-.01.227-.015.35-.003.05-.041.105-.045.161-.01.119.017.266.068.37 .097.198.268.413.435.544 .19.148.365.572.608.631 .177.042.384-.104.543-.143 .18-.043.397.01.571-.053 .222-.079.127-.337.288-.45 .104-.074.287-.01.406-.051 .2-.069.339-.263.376-.46 .016-.082.01-.145.039-.221 .039-.103.111-.16.09-.293-.01-.062-.052-.12-.064-.187-.022-.114.002-.224 0-.337-.003-.2.017-.379-.078-.55-.38-.688-1.236-.929-1.975-.789-.179.036-.286.128-.441.209-.17.088-.139.166-.318.224-.082.026-.216.123-.215.223 .001.115.005.051.011.169-.02.011-.021-.005-.03-.025" fill="#fff"></path>
			<path d="m.495-2.778c.018.072.008.127-.026.19-.052.101-.113.063-.165.128-.051.063-.099.276-.079.362-.169.058-.01.227-.015.35-.002.05-.041.105-.045.161-.01.119.017.266.068.37 .097.198.268.413.435.544 .19.148.365.572.608.631 .178.042.384-.104.543-.143 .181-.043.398.01.572-.052 .222-.079.127-.337.288-.45 .104-.074.287-.01.406-.051 .2-.07.339-.263.376-.46 .016-.082.01-.145.039-.221 .038-.103.111-.16.09-.293-.01-.062-.051-.12-.064-.187-.021-.114.002-.224 0-.337-.003-.2.017-.379-.078-.55-.38-.688-1.236-.929-1.975-.789-.18.035-.286.127-.442.208-.17.088-.139.166-.318.224-.081.026-.215.123-.215.223 .002.115.005.051.012.169-.021.011-.022-.005-.031-.025" fill="#fff"></path>
		
	
</pattern></defs>


	
		<path d="m221.074,147.271c.018,60.508-49.028,109.569-109.538,109.569s-109.555-49.061-109.536-109.569c-.019-60.508 49.028-109.569 109.536-109.569s109.555,49.061 109.538,109.569z" fill="#939dac" stroke="#010101" stroke-linecap="round" stroke-linejoin="round" stroke-width="4"></path>
		<path d="m220.652,156.858c-20.835,45.696-66.936,77.469-120.438,77.469-30.327,0-58.251-10.211-80.563-27.375 19.534,30.03 53.378,49.875 91.875,49.875 57.279,0 104.286-43.948 109.126-99.969z" fill="#010101" fill-opacity=".3137"></path>
	
	
		
			<path d="m14.479,247.771c-.007,22.68 18.377,25.569 41.057,25.569s41.063-2.89 41.058-25.569c.006-22.68-19.15-35.199-41.058-41.069-34.08-9.132-41.063,18.39-41.057,41.069z" fill="#939dac" stroke="#010101" stroke-linecap="round" stroke-linejoin="round" stroke-width="4"></path>
			<path d="m68.531,211.193c5.617,7.362 9.065,16.555 9.063,27.906 .007,26.823-18.383,30.25-41.063,30.25-3.51,0-6.904-.105-10.156-.344 7.439,3.611 17.751,4.344 29.156,4.344 22.68,0 41.069-2.913 41.063-25.594 .005-18.023-12.1-29.609-28.063-36.562z" fill="#010101" fill-opacity=".3137"></path>
			
				<path d="m87.495,260.562c1.644,6.127-3.251,8.274-9.547,9.962s-11.607,2.273-13.248-3.854 2.129-12.462 8.424-14.149c6.296-1.689 12.73,1.913 14.371,8.041z" fill="#fff" stroke="#010101" stroke-linecap="round" stroke-linejoin="round" stroke-width="4"></path>
				<path d="m46.054,267.199c-1.641,6.129-6.952,5.541-13.248,3.855s-11.19-3.836-9.547-9.963 8.075-9.729 14.371-8.041c6.295,1.687 10.067,8.022 8.424,14.149z" fill="#fff" stroke="#010101" stroke-linecap="round" stroke-linejoin="round" stroke-width="4"></path>
				<path d="m66.336,266.189c.002,6.344-5.281,7.151-11.8,7.151s-11.801-.808-11.799-7.151 5.281-11.487 11.799-11.487 11.802,5.144 11.8,11.487z" fill="#fff" stroke="#010101" stroke-linecap="round" stroke-linejoin="round" stroke-width="4"></path>
			
		
		
			<path d="m208.594,247.771c.006,22.68-18.377,25.569-41.058,25.569s-41.064-2.89-41.057-25.569c-.007-22.68 19.151-35.199 41.057-41.069 34.082-9.132 41.064,18.39 41.058,41.069z" fill="#939dac" stroke="#010101" stroke-linecap="round" stroke-linejoin="round" stroke-width="4"></path>
			
				<path d="m200.496,260.562c1.644,6.127-3.251,8.274-9.547,9.962s-11.607,2.273-13.248-3.854 2.129-12.462 8.424-14.149 12.73,1.913 14.371,8.041z" fill="#fff" stroke="#010101" stroke-linecap="round" stroke-linejoin="round" stroke-width="4"></path>
				<path d="m159.054,267.199c-1.641,6.129-6.952,5.541-13.248,3.855s-11.19-3.836-9.547-9.963 8.075-9.729 14.371-8.041c6.295,1.687 10.068,8.022 8.424,14.149z" fill="#fff" stroke="#010101" stroke-linecap="round" stroke-linejoin="round" stroke-width="4"></path>
				<path d="m179.336,266.189c.002,6.344-5.281,7.151-11.8,7.151s-11.801-.808-11.799-7.151 5.281-11.487 11.799-11.487 11.802,5.144 11.8,11.487z" fill="#fff" stroke="#010101" stroke-linecap="round" stroke-linejoin="round" stroke-width="4"></path>
			
			<path d="m186.058,205.515c10.562,8.152 13.348,24.672 13.344,39.25 .007,23.469-19.008,26.469-42.469,26.469-5.091,0-9.945-.165-14.469-.625 6.935,2.22 15.622,2.719 25.063,2.719 22.68,0 41.069-2.882 41.063-25.563 .004-17.769-4.287-38.493-22.532-42.25z" fill="#010101" fill-opacity=".3137"></path>
		
	
	
		<path d="m213.788,122.771c7,42-24.737,75.697-91.921,83.25-56.333,6.333-111.348-31.193-111.333-79 32-48.667 121.965-103.707 122.455-55.903 .211,20.57 56.799-29.597 80.799,51.653z" fill="#010101" fill-opacity=".3137"></path>
		<path d="m192.9,91.985c-1.039-14.407-4.696-27.927-10.387-39.897 6.41-4.801 10.701-13.3 10.701-22.971 0-14.967-10.213-27.117-22.788-27.117-8.129,0-15.236,5.104-19.269,12.733-12.013-8.094-25.888-12.733-40.669-12.733s-28.625,4.643-40.636,12.733c-4.032-7.629-11.14-12.733-19.269-12.733-12.576,0-22.788,12.15-22.788,27.117 0,9.684 4.276,18.174 10.701,22.971-5.691,11.97-9.348,25.491-10.387,39.899-10.487,11.029-16.604,24.279-16.604,38.535 0,38.384 44.323,69.5 99,69.5s99-31.116 99-69.5c0-14.256-6.118-27.507-16.605-38.537z" fill="#939dac" stroke="#010101" stroke-linecap="round" stroke-linejoin="round" stroke-width="4"></path>
		
			<path d="m163.071,138.894c-3.86,7.963-10.946,11.702-15.825,8.35s-5.7-12.521-1.837-20.482 10.948-11.698 15.825-8.348 5.7,12.521 1.837,20.48z" fill="#010101"></path>
			<path d="m57.941,138.894c3.86,7.963 10.948,11.702 15.825,8.35s5.7-12.521 1.835-20.482c-3.858-7.96-10.946-11.698-15.823-8.348s-5.7,12.521-1.837,20.48z" fill="#010101"></path>
		
		
			<path d="m169.666,14.799c-4.57,0-8.562,2.865-10.839,7.147 6.99,5.602 13.007,12.755 17.711,21.075 3.587-2.712 5.978-7.503 5.978-12.931-.001-8.438-5.759-15.291-12.85-15.291z" fill="#e6e6e6" stroke="#010101" stroke-linecap="round" stroke-linejoin="round" stroke-width="4"></path>
			<path d="m49.493,14.799c4.57,0 8.562,2.865 10.839,7.147-6.989,5.602-13.007,12.755-17.71,21.075-3.588-2.712-5.979-7.503-5.979-12.931 0-8.438 5.759-15.291 12.85-15.291z" fill="#e6e6e6" stroke="#010101" stroke-linecap="round" stroke-linejoin="round" stroke-width="4"></path>
		
		
			
				<path d="m156.538,73.801c.003,12.519-10.145,22.669-22.663,22.669s-22.667-10.15-22.663-22.669 10.144-22.669 22.663-22.669 22.666,10.15 22.663,22.669z" fill="#fff" stroke="#010101" stroke-linecap="round" stroke-linejoin="round" stroke-width="4"></path>
				<path d="m136.392,77.801c.002,4.173-3.381,7.557-7.554,7.557s-7.556-3.384-7.555-7.557 3.382-7.557 7.555-7.557 7.556,3.384 7.554,7.557z" fill="#010101"></path>
			
			
				<path d="m103.805,73.801c.004,12.519-10.145,22.669-22.663,22.669s-22.666-10.15-22.663-22.669 10.145-22.669 22.663-22.669 22.667,10.15 22.663,22.669z" fill="#fff" stroke="#010101" stroke-linecap="round" stroke-linejoin="round" stroke-width="4"></path>
				<path d="m94.362,77.801c.002,4.173-3.381,7.557-7.554,7.557s-7.556-3.384-7.555-7.557 3.382-7.557 7.555-7.557 7.556,3.384 7.554,7.557z" fill="#010101"></path>
			
		
		<path d="m207.538,117.021c-4.93,47.578-28.332,65.369-82,71.333-24,2.667-39.333,5.334-83.667-7 40.667,21.334 47,16.667 79,17.667 24.501.766 64-10.334 83.667-45.667 11-27 3.98-31.113 3-36.333z" fill="#010101" fill-opacity=".3137"></path>
		<path d="m127.418,177.262c6.811-1.1 15.261-5.862 18.729-9.961 3.561-4.207 5.645,14.967 4.555,17.599-.999,2.414-9.403,6.644-11.862,6.31-2.645-.359-17.792-12.921-11.422-13.948z" fill="#fff" stroke="#010101" stroke-linejoin="round" stroke-width="4"></path>
	

</svg>
